<?xml version="1.0" encoding="UTF-8"?>
<svg id="Layer_1" data-name="Layer 1" xmlns="http://www.w3.org/2000/svg" viewBox="0 0 934.22 681">
  <defs>
    <style>
      .cls-1 {
        fill: #d8600e;
      }

      .cls-1, .cls-2, .cls-3, .cls-4, .cls-5, .cls-6, .cls-7, .cls-8, .cls-9, .cls-10, .cls-11, .cls-12, .cls-13, .cls-14, .cls-15, .cls-16, .cls-17, .cls-18, .cls-19, .cls-20, .cls-21, .cls-22, .cls-23, .cls-24, .cls-25, .cls-26, .cls-27 {
        stroke-width: 0px;
      }

      .cls-2 {
        fill: #c4bd3d;
      }

      .cls-3 {
        fill: #9b6e1e;
      }

      .cls-4 {
        fill: #dddd97;
      }

      .cls-5 {
        fill: #e06332;
      }

      .cls-6 {
        fill: #edc258;
      }

      .cls-7 {
        fill: #eb6a4b;
      }

      .cls-8 {
        fill: #d1aa5d;
      }

      .cls-9 {
        fill: #f9b903;
      }

      .cls-10 {
        fill: #e09258;
      }

      .cls-11 {
        fill: #cbbd36;
      }

      .cls-12 {
        fill: #9b281d;
      }

      .cls-28 {
        letter-spacing: 0em;
      }

      .cls-13 {
        fill: #e5b223;
      }

      .cls-14 {
        fill: #f77a1c;
      }

      .cls-15 {
        fill: #ffc533;
      }

      .cls-29 {
        fill: #2d3132;
        font-family: BrandonGrotesque-Bold, 'Brandon Grotesque';
        font-size: 94.48px;
        font-weight: 700;
      }

      .cls-16 {
        fill: #f9f9f9;
      }

      .cls-17 {
        fill: #e2c754;
      }

      .cls-18 {
        fill: #986b1e;
      }

      .cls-19 {
        fill: #af3431;
      }

      .cls-20 {
        fill: #c1381d;
      }

      .cls-21 {
        fill: #d5651e;
      }

      .cls-22 {
        fill: #c97d31;
      }

      .cls-23 {
        fill: #e8e573;
      }

      .cls-30 {
        letter-spacing: 0em;
      }

      .cls-24 {
        fill: #c46341;
      }

      .cls-25 {
        fill: #dba909;
      }

      .cls-26 {
        fill: #b6331b;
      }

      .cls-27 {
        fill: #d15140;
      }
    </style>
  </defs>
  <rect class="cls-16" width="934.22" height="681"/>
  <g>
    <text class="cls-29" transform="translate(185.85 528.58)"><tspan x="0" y="0">BARCE</tspan><tspan class="cls-28" x="304.03" y="0">L</tspan><tspan class="cls-30" x="351.09" y="0">ONA</tspan></text>
    <path class="cls-17" d="M361.34,258.62c.49-9.22,3.98-17.85,10.03-24.73l-17.39-2.1-7.73,23.43,15.09,3.4Z"/>
    <path class="cls-12" d="M385.88,223.33c.05-.02.11-.05.16-.07l11-25.08c-3.64-.73-7.34-1.17-11.09-1.26-5.36-.13-10.62.41-15.71,1.56l15.64,24.85Z"/>
    <path class="cls-23" d="M509.41,193.04c.18,1.76.3,3.53.25,5.32-.26,10.92-4.77,21.08-12.68,28.63-.99.94-1.55,2.26-1.55,3.63,0,1.29.49,2.52,1.38,3.46,1.9,2,5.09,2.1,7.11.18,5.03-4.8,10.99-8.04,17.26-9.77l6.95-19.87c-.21.08-.43.14-.64.22,1.6-3.71,2.79-7.53,3.65-11.4l-21.74-.41Z"/>
    <path class="cls-3" d="M502.82,174.75c2.25,3.36,3.97,7.01,5.12,10.85l24.41.46c.54-5.39.39-10.81-.43-16.14l-19.94-11.75-9.15,16.57Z"/>
    <path class="cls-15" d="M502.52,292.11c-.91-.96-2.2-1.49-3.69-1.5-1.34,0-2.64.56-3.6,1.52-1.96,1.94-1.99,5.03-.09,7.02,4.61,4.84,7.77,10.54,9.54,16.55l21.56-11.34c-9.03-1.3-17.33-5.53-23.72-12.24Z"/>
    <path class="cls-13" d="M372.53,289.02c-6.03-6.33-9.75-14.24-10.89-22.74l-17.73-4-11.4,34.54,50.64.19c-3.9-2.05-7.49-4.71-10.62-7.99Z"/>
    <path class="cls-18" d="M536.83,202.14l-7.33,20.96c8.23-.52,16.55,1.46,23.8,5.85l17.31-24.66c-6.11-2.11-12.56-3.3-19.2-3.46-4.92-.14-9.82.32-14.59,1.32Z"/>
    <path class="cls-8" d="M540.64,305.14l-34.48,18.14c.77,7.8-.69,15.75-4.36,22.84l11.71,40.02c9.38-11.04,14.67-24.82,15.02-39.51.21-8.29-1.2-16.48-4.09-24.12,7.16,3.13,14.73,4.85,22.31,5.22l-6.13-22.59Z"/>
    <path class="cls-5" d="M582.26,294.09l23.88-.32c3.91-7.45,6.3-15.65,7-24.21l-18.7-4.22-12.18,28.74Z"/>
    <path class="cls-26" d="M346.48,230.88l-17.17-2.08c-5.21,9.06-8.13,19.32-8.38,30.06-.25,10.45,2.02,20.57,6.53,29.68l19.02-57.65Z"/>
    <path class="cls-7" d="M597.6,222.47c-.57-.65-1.15-1.3-1.75-1.93-5.32-5.59-11.49-10.07-18.22-13.35l-17.66,25.15,37.63-9.87Z"/>
    <path class="cls-6" d="M409.82,202.17s-.09-.03-.13-.05l-5.49-1.84-8.87,20.23c2.55-.43,5.16-.63,7.81-.58,10.92.26,21.08,4.75,28.62,12.68,1.78,1.84,4.78,2.02,6.85.39,1.12-.88,1.81-2.19,1.9-3.58.11-1.41-.38-2.81-1.37-3.84-4.67-4.91-7.85-10.7-9.61-16.8l-19.71-6.61s0,0,0,.01Z"/>
    <path class="cls-9" d="M469.76,156.47c10.63.25,20.53,4.56,28.01,12.11l7.82-14.16-37.95-22.35-14.3,27.44c5.15-2.1,10.71-3.16,16.42-3.03Z"/>
    <path class="cls-24" d="M597.38,258.42l15.94,3.59c-.32-9.09-2.54-17.86-6.51-25.85l-9.43,22.25Z"/>
    <path class="cls-14" d="M601.8,229.02l-37.34,9.8c5.78,7.43,8.81,16.54,8.57,26.07-.26,10.81-4.68,20.87-12.44,28.39l-.24.23c-.33.32-.69.59-1.03.89l14.86-.2,27.62-65.18Z"/>
    <path class="cls-22" d="M413.82,353.78l-11.14,3.16c2.24,11.92,7.85,22.96,16.42,31.95,3.98,4.18,8.44,7.73,13.24,10.63l-18.52-45.75Z"/>
    <path class="cls-11" d="M471.06,125.49l58.5,34.45c-2.87-8.81-7.68-17.07-14.37-24.1-10.53-11.07-24.39-17.83-39.43-19.37l-4.7,9.01Z"/>
    <path class="cls-20" d="M441.25,166.67l26.33-50.53c-15.77.38-30.67,6.55-42.16,17.51-3.83,3.64-7.14,7.68-9.9,12.03l25.73,20.99Z"/>
    <path class="cls-25" d="M464.69,380.31l-16.02,26.13c5.28,1.39,10.78,2.12,16.41,2.12,13.69,0,26.8-4.35,37.65-12.35l-38.04-15.89Z"/>
    <path class="cls-2" d="M547.54,301.95v-.16s-.08.04-.13.06l6.99,25.77c14.33-1.03,28.29-6.86,39.26-17.31,2.94-2.8,5.56-5.84,7.88-9.06l-54,.71Z"/>
    <path class="cls-21" d="M378.74,227.33c.21-.15.42-.3.63-.44l-16.51-26.22c-8.19,2.96-15.76,7.6-22.25,13.77-2.45,2.33-4.68,4.83-6.69,7.47l44.82,5.43Z"/>
    <path class="cls-10" d="M393.53,304.46l-55.03-.21c11.89,12.45,27.95,19.15,44.34,19.58l10.7-19.37Z"/>
    <path class="cls-4" d="M496.42,354.11c-.85.98-1.75,1.94-2.71,2.86-6,5.73-13.36,9.4-21.28,10.73l-3.82,6.23,38.3,16-10.48-35.82Z"/>
    <path class="cls-27" d="M405.72,178.09c-.12,5.21.39,10.38,1.51,15.4l20.78,6.97c-.74-9.89,2.12-19.95,8.46-28.13l-24.59-20.05c-3.81,7.97-5.95,16.72-6.17,25.81Z"/>
    <path class="cls-1" d="M424.62,326.34c.26-10.92,4.77-21.08,12.68-28.63.99-.94,1.55-2.26,1.55-3.63,0-1.29-.49-2.52-1.38-3.46-.99-1.03-2.31-1.56-3.65-1.56-1.25,0-2.49.47-3.46,1.38-7.36,7.01-16.8,10.88-26.83,11.22l-12.04,21.79c5.17-.57,10.3-1.75,15.27-3.61-3.22,7.43-4.98,15.48-5.18,23.69-.05,2.01,0,4,.14,5.98l25.66-7.29c-1.95-4.99-2.91-10.36-2.77-15.88Z"/>
    <path class="cls-19" d="M463.45,368.17c-10.51-.52-20.26-4.95-27.55-12.61-1.95-2.05-3.66-4.26-5.12-6.61l-9.8,2.78,20.9,51.61,21.57-35.18Z"/>
  </g>
</svg>