<svg width="1080" height="332" viewBox="0 0 1080 332" fill="none" xmlns="http://www.w3.org/2000/svg">
<path d="M414 173.98C429.665 173.98 445.23 174.961 460.923 174.961C476.561 174.961 492.207 175.049 507.845 174.961C516.364 174.913 524.621 173.49 533.201 173.49C535.634 173.49 546.824 174.42 548 173" stroke="#F5AA52" stroke-width="7" stroke-linecap="round"/>
<rect width="1080" height="332" fill="white"/>
<rect x="122" y="23" width="845" height="281" fill="white"/>
<path d="M225.722 157.97C227.102 157.97 228.452 157.97 229.772 157.97C231.092 157.91 232.442 157.82 233.822 157.7C234.962 157.58 236.102 157.46 237.242 157.34C238.382 157.16 239.492 156.98 240.572 156.8L225.362 207.29C225.122 208.13 224.912 209.03 224.732 209.99C224.612 210.89 224.552 211.76 224.552 212.6C224.552 212.9 224.552 213.26 224.552 213.68C224.612 214.1 224.702 214.52 224.822 214.94C224.942 215.36 225.122 215.72 225.362 216.02C225.662 216.26 226.052 216.38 226.532 216.38C227.432 216.38 228.302 216.02 229.142 215.3C230.042 214.52 230.852 213.59 231.572 212.51C232.292 211.43 232.922 210.29 233.462 209.09C234.062 207.83 234.542 206.75 234.902 205.85L235.622 206.21C235.382 206.93 234.962 207.98 234.362 209.36C233.762 210.74 232.982 212.15 232.022 213.59C231.122 214.97 230.042 216.2 228.782 217.28C227.582 218.3 226.232 218.81 224.732 218.81C222.812 218.81 221.402 218.18 220.502 216.92C219.662 215.6 219.242 214.01 219.242 212.15C219.242 211.31 219.272 210.53 219.332 209.81C219.452 209.03 219.572 208.4 219.692 207.92C219.272 208.82 218.702 209.9 217.982 211.16C217.262 212.42 216.392 213.62 215.372 214.76C214.352 215.84 213.122 216.8 211.682 217.64C210.302 218.42 208.742 218.81 207.002 218.81C203.702 218.81 201.032 217.76 198.992 215.66C197.012 213.5 196.022 210.77 196.022 207.47C196.022 206.45 196.082 205.37 196.202 204.23C196.382 203.09 196.682 201.92 197.102 200.72C197.882 198.2 198.992 195.59 200.432 192.89C201.872 190.19 203.552 187.73 205.472 185.51C207.452 183.23 209.612 181.37 211.952 179.93C214.292 178.49 216.782 177.77 219.422 177.77C221.102 177.77 222.422 178.16 223.382 178.94C224.342 179.72 225.152 180.86 225.812 182.36L231.392 164.36C231.512 164.06 231.602 163.7 231.662 163.28C231.782 162.86 231.842 162.41 231.842 161.93C231.842 160.49 231.212 159.59 229.952 159.23C228.752 158.87 227.282 158.69 225.542 158.69L225.722 157.97ZM224.012 189.29C224.132 188.81 224.252 188.27 224.372 187.67C224.492 187.01 224.552 186.32 224.552 185.6C224.552 184.88 224.462 184.16 224.282 183.44C224.162 182.66 223.922 181.97 223.562 181.37C223.262 180.77 222.842 180.29 222.302 179.93C221.762 179.57 221.072 179.39 220.232 179.39C219.152 179.39 218.072 179.75 216.992 180.47C215.912 181.13 214.862 182.09 213.842 183.35C212.822 184.55 211.832 185.99 210.872 187.67C209.912 189.29 209.012 191.03 208.172 192.89C206.792 196.01 205.562 199.1 204.482 202.16C203.402 205.16 202.862 207.92 202.862 210.44C202.862 211.16 202.922 211.94 203.042 212.78C203.222 213.56 203.492 214.31 203.852 215.03C204.212 215.69 204.692 216.26 205.292 216.74C205.952 217.16 206.792 217.37 207.812 217.37C209.012 217.37 210.152 217.04 211.232 216.38C212.312 215.72 213.302 214.88 214.202 213.86C215.162 212.78 216.002 211.64 216.722 210.44C217.442 209.18 218.042 208.01 218.522 206.93C219.122 205.37 219.662 203.9 220.142 202.52C220.622 201.14 221.042 199.79 221.402 198.47C221.822 197.09 222.212 195.68 222.572 194.24C222.992 192.74 223.472 191.09 224.012 189.29ZM241.313 199.82C241.913 197.84 242.903 195.59 244.283 193.07C245.663 190.49 247.313 188.09 249.233 185.87C251.153 183.59 253.283 181.7 255.623 180.2C257.963 178.64 260.453 177.86 263.093 177.86C264.053 177.86 264.953 177.98 265.793 178.22C266.693 178.4 267.473 178.73 268.133 179.21C268.853 179.69 269.423 180.32 269.843 181.1C270.263 181.88 270.473 182.84 270.473 183.98C270.473 185.18 270.203 186.38 269.663 187.58C269.183 188.78 268.523 189.92 267.683 191C266.843 192.08 265.883 193.1 264.803 194.06C263.783 194.96 262.763 195.71 261.743 196.31C259.763 197.57 257.693 198.65 255.533 199.55C253.373 200.45 250.853 201.41 247.973 202.43C247.613 203.57 247.283 204.83 246.983 206.21C246.743 207.53 246.623 208.94 246.623 210.44C246.623 212.06 246.983 213.5 247.703 214.76C248.423 215.96 249.743 216.56 251.663 216.56C252.923 216.56 254.213 216.26 255.533 215.66C256.853 215 258.083 214.22 259.223 213.32C260.423 212.36 261.503 211.34 262.463 210.26C263.423 209.12 264.233 208.07 264.893 207.11L265.613 207.56C265.013 208.52 264.173 209.66 263.093 210.98C262.073 212.24 260.873 213.44 259.493 214.58C258.173 215.72 256.703 216.71 255.083 217.55C253.523 218.33 251.843 218.72 250.043 218.72C247.343 218.72 245.003 217.76 243.023 215.84C241.103 213.92 240.143 211.04 240.143 207.2C240.143 206.12 240.233 204.98 240.413 203.78C240.593 202.52 240.893 201.2 241.313 199.82ZM248.423 200.72C250.403 199.94 252.323 199.13 254.183 198.29C256.043 197.39 257.813 196.25 259.493 194.87C261.053 193.55 262.373 191.9 263.453 189.92C264.533 187.94 265.073 185.9 265.073 183.8C265.073 183.32 265.013 182.81 264.893 182.27C264.833 181.73 264.683 181.25 264.443 180.83C264.203 180.35 263.873 179.99 263.453 179.75C263.033 179.45 262.493 179.3 261.833 179.3C260.873 179.3 259.913 179.72 258.953 180.56C257.993 181.34 257.063 182.39 256.163 183.71C255.263 184.97 254.423 186.41 253.643 188.03C252.863 189.65 252.113 191.27 251.393 192.89C250.733 194.45 250.133 195.95 249.593 197.39C249.113 198.77 248.723 199.88 248.423 200.72ZM281.74 158.42C283.12 158.42 284.47 158.42 285.79 158.42C287.11 158.36 288.46 158.27 289.84 158.15C290.98 158.03 292.12 157.91 293.26 157.79C294.46 157.61 295.6 157.43 296.68 157.25L281.65 207.74C281.41 208.58 281.17 209.54 280.93 210.62C280.69 211.64 280.57 212.63 280.57 213.59C280.57 214.25 280.72 214.94 281.02 215.66C281.32 216.38 281.95 216.74 282.91 216.74C283.69 216.74 284.53 216.38 285.43 215.66C286.33 214.88 287.2 213.95 288.04 212.87C288.88 211.73 289.66 210.56 290.38 209.36C291.1 208.1 291.7 206.99 292.18 206.03L292.9 206.3C292.6 207.02 292.06 208.1 291.28 209.54C290.56 210.92 289.69 212.33 288.67 213.77C287.65 215.15 286.48 216.38 285.16 217.46C283.9 218.54 282.55 219.08 281.11 219.08C278.59 219.08 276.85 218.39 275.89 217.01C274.93 215.57 274.45 213.89 274.45 211.97C274.45 210.83 274.54 209.69 274.72 208.55C274.96 207.35 275.23 206.24 275.53 205.22L287.41 164.81C287.53 164.51 287.62 164.15 287.68 163.73C287.8 163.31 287.86 162.86 287.86 162.38C287.86 160.94 287.23 160.04 285.97 159.68C284.77 159.32 283.3 159.14 281.56 159.14L281.74 158.42ZM295.318 189.65C295.918 188.51 296.608 187.25 297.388 185.87C298.168 184.49 299.038 183.2 299.998 182C300.958 180.8 301.978 179.81 303.058 179.03C304.198 178.19 305.398 177.77 306.658 177.77C308.698 177.77 310.108 178.46 310.888 179.84C311.728 181.22 312.148 182.72 312.148 184.34C312.148 185.18 312.058 186.05 311.878 186.95C311.758 187.85 311.548 188.75 311.248 189.65C310.288 192.71 309.118 195.77 307.738 198.83C306.358 201.83 305.068 204.86 303.868 207.92C303.448 208.94 303.028 210.05 302.608 211.25C302.248 212.45 302.068 213.56 302.068 214.58C302.068 215.96 302.638 216.65 303.778 216.65C304.618 216.65 305.488 216.29 306.388 215.57C307.288 214.79 308.158 213.86 308.998 212.78C309.898 211.64 310.708 210.47 311.428 209.27C312.148 208.01 312.748 206.9 313.228 205.94L313.948 206.3C313.408 207.38 312.748 208.64 311.968 210.08C311.248 211.46 310.378 212.81 309.358 214.13C308.398 215.45 307.288 216.56 306.028 217.46C304.828 218.36 303.508 218.81 302.068 218.81C300.088 218.81 298.618 218.15 297.658 216.83C296.758 215.51 296.308 214.01 296.308 212.33C296.308 210.95 296.578 209.36 297.118 207.56C298.198 204.02 299.548 200.63 301.168 197.39C302.848 194.09 304.438 190.4 305.938 186.32C306.118 185.78 306.298 185.18 306.478 184.52C306.658 183.8 306.748 183.11 306.748 182.45C306.748 180.77 306.118 179.93 304.858 179.93C304.078 179.93 303.268 180.29 302.428 181.01C301.588 181.67 300.778 182.54 299.998 183.62C299.278 184.64 298.558 185.75 297.838 186.95C297.178 188.09 296.578 189.14 296.038 190.1L295.318 189.65ZM313.228 162.29C314.488 162.29 315.508 162.71 316.288 163.55C317.128 164.33 317.548 165.32 317.548 166.52C317.548 167.66 317.128 168.68 316.288 169.58C315.508 170.42 314.458 170.84 313.138 170.84C311.938 170.84 310.918 170.42 310.078 169.58C309.298 168.68 308.908 167.69 308.908 166.61C308.908 165.41 309.298 164.39 310.078 163.55C310.918 162.71 311.968 162.29 313.228 162.29ZM346.693 182.27C347.713 181.43 348.853 180.65 350.113 179.93C351.373 179.15 352.633 178.76 353.893 178.76C355.153 178.76 356.203 179.27 357.043 180.29C357.943 181.25 358.393 182.3 358.393 183.44C358.393 185.3 357.463 186.23 355.603 186.23C354.643 186.23 353.923 185.87 353.443 185.15C353.023 184.43 352.813 183.65 352.813 182.81C352.813 182.51 352.813 182.24 352.813 182C352.873 181.7 352.903 181.49 352.903 181.37C352.903 181.19 352.813 181.1 352.633 181.1C352.453 181.04 352.303 181.01 352.183 181.01C351.523 181.01 350.773 181.28 349.933 181.82C349.093 182.3 348.283 182.87 347.503 183.53C348.643 185.63 349.213 187.82 349.213 190.1C349.213 192.56 348.763 194.93 347.863 197.21C347.023 199.49 345.823 201.5 344.263 203.24C342.703 204.98 340.843 206.39 338.683 207.47C336.583 208.49 334.273 209 331.753 209C331.033 209 330.163 209.06 329.143 209.18C328.183 209.24 327.283 209.42 326.443 209.72C325.603 210.02 324.883 210.44 324.283 210.98C323.683 211.46 323.383 212.15 323.383 213.05C323.383 214.31 324.013 215.24 325.273 215.84C326.533 216.44 328.093 216.92 329.953 217.28C331.873 217.64 333.913 218 336.073 218.36C338.293 218.72 340.333 219.26 342.193 219.98C344.113 220.76 345.703 221.84 346.963 223.22C348.223 224.6 348.853 226.52 348.853 228.98C348.853 231.56 348.313 233.75 347.233 235.55C346.213 237.35 344.833 238.82 343.093 239.96C341.353 241.16 339.373 242.03 337.153 242.57C334.993 243.11 332.743 243.38 330.403 243.38C328.123 243.38 325.903 243.11 323.743 242.57C321.583 242.09 319.663 241.37 317.983 240.41C316.363 239.51 315.043 238.34 314.023 236.9C313.063 235.52 312.583 233.93 312.583 232.13C312.583 230.09 313.183 228.35 314.383 226.91C315.583 225.53 317.173 224.84 319.153 224.84C319.873 224.84 320.533 224.93 321.133 225.11C321.793 225.35 322.273 225.65 322.573 226.01C321.013 226.25 319.813 227.03 318.973 228.35C318.193 229.67 317.803 230.96 317.803 232.22C317.803 233.42 318.013 234.59 318.433 235.73C318.913 236.93 319.663 237.98 320.683 238.88C321.703 239.78 323.053 240.5 324.733 241.04C326.413 241.64 328.513 241.94 331.033 241.94C333.193 241.94 335.083 241.67 336.703 241.13C338.323 240.65 339.673 239.96 340.753 239.06C341.833 238.22 342.643 237.23 343.183 236.09C343.723 235.01 343.993 233.84 343.993 232.58C343.993 230.72 343.513 229.28 342.553 228.26C341.593 227.3 340.393 226.55 338.953 226.01C337.573 225.53 336.103 225.17 334.543 224.93C332.983 224.75 331.603 224.57 330.403 224.39C328.903 224.15 327.373 223.88 325.813 223.58C324.313 223.28 322.933 222.83 321.673 222.23C320.473 221.69 319.483 220.94 318.703 219.98C317.923 219.08 317.533 217.88 317.533 216.38C317.533 215.12 317.803 214.01 318.343 213.05C318.943 212.09 319.723 211.25 320.683 210.53C321.703 209.81 322.873 209.24 324.193 208.82C325.573 208.34 327.013 208.04 328.513 207.92C325.993 206.72 324.193 205.07 323.113 202.97C322.033 200.87 321.493 198.74 321.493 196.58C321.493 195.44 321.643 194.27 321.943 193.07C322.423 191.27 323.143 189.47 324.103 187.67C325.123 185.87 326.323 184.22 327.703 182.72C329.143 181.22 330.763 180.02 332.563 179.12C334.423 178.16 336.403 177.68 338.503 177.68C340.483 177.68 342.103 178.1 343.363 178.94C344.683 179.78 345.793 180.89 346.693 182.27ZM338.683 178.94C336.943 178.94 335.383 179.72 334.003 181.28C332.683 182.78 331.543 184.61 330.583 186.77C329.683 188.93 328.993 191.18 328.513 193.52C328.033 195.86 327.793 197.81 327.793 199.37C327.793 200.33 327.853 201.32 327.973 202.34C328.093 203.3 328.333 204.17 328.693 204.95C329.053 205.73 329.563 206.36 330.223 206.84C330.883 207.32 331.723 207.56 332.743 207.56C334.603 207.56 336.163 206.69 337.423 204.95C338.743 203.21 339.793 201.17 340.573 198.83C341.353 196.43 341.893 194 342.193 191.54C342.553 189.08 342.733 187.13 342.733 185.69C342.733 184.91 342.673 184.13 342.553 183.35C342.433 182.57 342.223 181.85 341.923 181.19C341.623 180.53 341.203 179.99 340.663 179.57C340.183 179.15 339.523 178.94 338.683 178.94ZM366.408 158.33C367.788 158.33 369.138 158.3 370.458 158.24C371.778 158.18 373.128 158.09 374.508 157.97C376.728 157.79 378.918 157.52 381.078 157.16L369.648 192.35C370.368 191.09 371.268 189.65 372.348 188.03C373.428 186.35 374.598 184.76 375.858 183.26C377.178 181.76 378.588 180.5 380.088 179.48C381.588 178.4 383.148 177.86 384.768 177.86C387.288 177.86 389.208 178.55 390.528 179.93C391.908 181.31 392.598 183.35 392.598 186.05C392.598 187.79 392.358 189.59 391.878 191.45C391.398 193.25 390.858 194.93 390.258 196.49C389.718 197.87 389.118 199.37 388.458 200.99C387.798 202.55 387.168 204.14 386.568 205.76C385.968 207.32 385.458 208.82 385.038 210.26C384.618 211.7 384.408 212.93 384.408 213.95C384.408 214.49 384.498 215.06 384.678 215.66C384.918 216.2 385.458 216.47 386.298 216.47C387.138 216.47 388.008 216.11 388.908 215.39C389.868 214.67 390.768 213.77 391.608 212.69C392.508 211.61 393.318 210.47 394.038 209.27C394.758 208.01 395.328 206.87 395.748 205.85L396.468 206.21C396.048 207.17 395.448 208.37 394.668 209.81C393.948 211.25 393.078 212.66 392.058 214.04C391.038 215.36 389.868 216.5 388.548 217.46C387.288 218.42 385.878 218.9 384.318 218.9C382.278 218.9 380.748 218.24 379.728 216.92C378.708 215.6 378.198 213.98 378.198 212.06C378.198 211.22 378.288 210.29 378.468 209.27C378.648 208.19 378.918 207.14 379.278 206.12C380.058 203.84 380.748 201.95 381.348 200.45C381.948 198.89 382.488 197.48 382.968 196.22C383.448 194.96 383.928 193.7 384.408 192.44C384.948 191.18 385.518 189.65 386.118 187.85C386.658 186.35 386.928 184.97 386.928 183.71C386.928 182.81 386.718 181.94 386.298 181.1C385.938 180.26 385.128 179.84 383.868 179.84C382.788 179.84 381.678 180.26 380.538 181.1C379.458 181.94 378.378 183.05 377.298 184.43C376.218 185.75 375.168 187.25 374.148 188.93C373.188 190.55 372.288 192.2 371.448 193.88C370.608 195.5 369.888 197.06 369.288 198.56C368.688 200 368.238 201.17 367.938 202.07L362.808 218H355.698L372.078 164.72C372.198 164.42 372.288 164.06 372.348 163.64C372.468 163.22 372.528 162.77 372.528 162.29C372.528 160.85 371.898 159.95 370.638 159.59C369.438 159.23 367.968 159.05 366.228 159.05L366.408 158.33ZM403.763 180.02H411.053L415.643 166.79H422.123L418.073 180.02H424.733L424.283 181.46H417.623L409.613 207.47C409.313 208.37 409.013 209.39 408.713 210.53C408.473 211.61 408.353 212.66 408.353 213.68C408.353 214.4 408.503 215.09 408.803 215.75C409.103 216.35 409.673 216.65 410.513 216.65C411.293 216.65 412.133 216.26 413.033 215.48C413.993 214.64 414.893 213.65 415.733 212.51C416.573 211.37 417.353 210.17 418.073 208.91C418.793 207.65 419.363 206.57 419.783 205.67L420.503 206.03C420.203 206.75 419.693 207.83 418.973 209.27C418.313 210.65 417.473 212.06 416.453 213.5C415.433 214.94 414.263 216.2 412.943 217.28C411.623 218.36 410.183 218.9 408.623 218.9C406.283 218.9 404.633 218.18 403.673 216.74C402.773 215.24 402.323 213.5 402.323 211.52C402.323 210.44 402.413 209.33 402.593 208.19C402.833 207.05 403.103 205.97 403.403 204.95L410.603 181.46H403.313L403.763 180.02Z" fill="black"/>
<path d="M473.997 206.5C473.997 207.3 474.097 207.92 474.297 208.36C474.497 208.8 474.777 209.14 475.137 209.38C475.497 209.62 475.917 209.78 476.397 209.86C476.877 209.9 477.417 209.92 478.017 209.92V211C477.057 211 476.237 211 475.557 211C474.877 210.96 474.257 210.94 473.697 210.94C473.177 210.9 472.677 210.88 472.197 210.88C471.757 210.84 471.277 210.82 470.757 210.82C470.197 210.82 469.677 210.84 469.197 210.88C468.757 210.88 468.277 210.9 467.757 210.94C467.237 210.94 466.637 210.96 465.957 211C465.317 211 464.517 211 463.557 211V209.92C464.157 209.92 464.697 209.9 465.177 209.86C465.657 209.78 466.057 209.62 466.377 209.38C466.737 209.14 467.017 208.8 467.217 208.36C467.417 207.92 467.517 207.3 467.517 206.5V195.22C467.517 194.62 467.497 193.84 467.457 192.88C467.417 191.92 467.237 190.98 466.917 190.06C466.637 189.1 466.157 188.3 465.477 187.66C464.797 186.98 463.837 186.64 462.597 186.64C461.757 186.64 460.997 186.86 460.317 187.3C459.637 187.7 459.037 188.26 458.517 188.98C458.037 189.7 457.657 190.54 457.377 191.5C457.137 192.46 457.017 193.48 457.017 194.56V206.5C457.017 207.3 457.117 207.92 457.317 208.36C457.517 208.8 457.797 209.14 458.157 209.38C458.517 209.62 458.937 209.78 459.417 209.86C459.897 209.9 460.437 209.92 461.037 209.92V211C460.077 211 459.237 211 458.517 211C457.837 210.96 457.217 210.94 456.657 210.94C456.097 210.9 455.577 210.88 455.097 210.88C454.617 210.84 454.117 210.82 453.597 210.82C453.037 210.82 452.517 210.84 452.037 210.88C451.597 210.88 451.117 210.9 450.597 210.94C450.117 210.94 449.537 210.96 448.857 211C448.217 211 447.417 211 446.457 211V209.92C447.057 209.92 447.597 209.9 448.077 209.86C448.557 209.78 448.977 209.62 449.337 209.38C449.697 209.14 449.977 208.8 450.177 208.36C450.377 207.92 450.477 207.3 450.477 206.5V190.84C450.477 190.08 450.377 189.48 450.177 189.04C449.977 188.56 449.697 188.2 449.337 187.96C448.977 187.72 448.557 187.58 448.077 187.54C447.597 187.46 447.057 187.42 446.457 187.42V186.34C447.137 186.26 447.897 186.16 448.737 186.04C449.617 185.88 450.497 185.72 451.377 185.56C452.257 185.36 453.117 185.14 453.957 184.9C454.797 184.66 455.537 184.4 456.177 184.12C456.377 184.8 456.517 185.44 456.597 186.04C456.677 186.6 456.757 187.46 456.837 188.62C457.877 187.14 459.077 186.06 460.437 185.38C461.837 184.7 463.397 184.36 465.117 184.36C466.797 184.36 468.257 184.8 469.497 185.68C470.777 186.56 471.757 187.7 472.437 189.1C473.477 187.3 474.777 186.06 476.337 185.38C477.937 184.7 479.717 184.36 481.677 184.36C483.717 184.36 485.337 184.72 486.537 185.44C487.777 186.12 488.717 186.98 489.357 188.02C490.037 189.06 490.477 190.18 490.677 191.38C490.917 192.58 491.037 193.7 491.037 194.74V206.5C491.037 207.3 491.137 207.92 491.337 208.36C491.537 208.8 491.817 209.14 492.177 209.38C492.537 209.62 492.957 209.78 493.437 209.86C493.917 209.9 494.457 209.92 495.057 209.92V211C494.097 211 493.277 211 492.597 211C491.917 210.96 491.317 210.94 490.797 210.94C490.317 210.9 489.837 210.88 489.357 210.88C488.917 210.84 488.437 210.82 487.917 210.82C487.357 210.82 486.837 210.84 486.357 210.88C485.877 210.88 485.357 210.9 484.797 210.94C484.237 210.94 483.617 210.96 482.937 211C482.257 211 481.437 211 480.477 211V209.92C481.077 209.92 481.617 209.9 482.097 209.86C482.577 209.78 482.997 209.62 483.357 209.38C483.717 209.14 483.997 208.8 484.197 208.36C484.397 207.92 484.497 207.3 484.497 206.5V194.62C484.497 194.18 484.457 193.5 484.377 192.58C484.337 191.62 484.157 190.66 483.837 189.7C483.557 188.74 483.077 187.9 482.397 187.18C481.717 186.46 480.757 186.1 479.517 186.1C478.077 186.1 476.797 186.7 475.677 187.9C474.557 189.1 473.997 190.9 473.997 193.3V206.5ZM522.906 206.62C522.426 207.22 521.846 207.82 521.166 208.42C520.526 209.02 519.786 209.56 518.946 210.04C518.106 210.52 517.146 210.92 516.066 211.24C515.026 211.56 513.866 211.72 512.586 211.72C510.906 211.72 509.266 211.44 507.666 210.88C506.066 210.28 504.626 209.42 503.346 208.3C502.066 207.18 501.026 205.8 500.226 204.16C499.466 202.48 499.086 200.58 499.086 198.46C499.086 196.54 499.446 194.74 500.166 193.06C500.886 191.38 501.866 189.9 503.106 188.62C504.346 187.34 505.806 186.34 507.486 185.62C509.166 184.86 510.966 184.48 512.886 184.48C514.286 184.48 515.646 184.72 516.966 185.2C518.286 185.64 519.446 186.3 520.446 187.18C521.486 188.02 522.326 189.04 522.966 190.24C523.646 191.44 524.046 192.76 524.166 194.2C524.166 194.44 524.146 194.66 524.106 194.86C524.106 195.06 524.006 195.16 523.806 195.16H506.226C506.146 195.84 506.086 196.42 506.046 196.9C506.046 197.34 506.046 197.84 506.046 198.4C506.046 200.08 506.226 201.64 506.586 203.08C506.986 204.48 507.526 205.7 508.206 206.74C508.886 207.74 509.726 208.52 510.726 209.08C511.726 209.64 512.846 209.92 514.086 209.92C515.166 209.92 516.126 209.78 516.966 209.5C517.806 209.22 518.566 208.9 519.246 208.54C519.926 208.14 520.506 207.72 520.986 207.28C521.466 206.8 521.886 206.38 522.246 206.02L522.906 206.62ZM516.366 193.72C517.006 193.72 517.326 193.4 517.326 192.76C517.326 192 517.246 191.22 517.086 190.42C516.966 189.58 516.726 188.82 516.366 188.14C516.006 187.46 515.526 186.9 514.926 186.46C514.366 186.02 513.646 185.8 512.766 185.8C511.646 185.8 510.706 186.06 509.946 186.58C509.226 187.1 508.626 187.76 508.146 188.56C507.666 189.32 507.286 190.16 507.006 191.08C506.766 192 506.566 192.88 506.406 193.72H516.366ZM552.613 206.62C552.133 207.22 551.553 207.82 550.873 208.42C550.233 209.02 549.493 209.56 548.653 210.04C547.813 210.52 546.853 210.92 545.773 211.24C544.733 211.56 543.573 211.72 542.293 211.72C540.613 211.72 538.973 211.44 537.373 210.88C535.773 210.28 534.333 209.42 533.053 208.3C531.773 207.18 530.733 205.8 529.933 204.16C529.173 202.48 528.793 200.58 528.793 198.46C528.793 196.54 529.153 194.74 529.873 193.06C530.593 191.38 531.573 189.9 532.813 188.62C534.053 187.34 535.513 186.34 537.193 185.62C538.873 184.86 540.673 184.48 542.593 184.48C543.993 184.48 545.353 184.72 546.673 185.2C547.993 185.64 549.153 186.3 550.153 187.18C551.193 188.02 552.033 189.04 552.673 190.24C553.353 191.44 553.753 192.76 553.873 194.2C553.873 194.44 553.853 194.66 553.813 194.86C553.813 195.06 553.713 195.16 553.513 195.16H535.933C535.853 195.84 535.793 196.42 535.753 196.9C535.753 197.34 535.753 197.84 535.753 198.4C535.753 200.08 535.933 201.64 536.293 203.08C536.693 204.48 537.233 205.7 537.913 206.74C538.593 207.74 539.433 208.52 540.433 209.08C541.433 209.64 542.553 209.92 543.793 209.92C544.873 209.92 545.833 209.78 546.673 209.5C547.513 209.22 548.273 208.9 548.953 208.54C549.633 208.14 550.213 207.72 550.693 207.28C551.173 206.8 551.593 206.38 551.953 206.02L552.613 206.62ZM546.073 193.72C546.713 193.72 547.033 193.4 547.033 192.76C547.033 192 546.953 191.22 546.793 190.42C546.673 189.58 546.433 188.82 546.073 188.14C545.713 187.46 545.233 186.9 544.633 186.46C544.073 186.02 543.353 185.8 542.473 185.8C541.353 185.8 540.413 186.06 539.653 186.58C538.933 187.1 538.333 187.76 537.853 188.56C537.373 189.32 536.993 190.16 536.713 191.08C536.473 192 536.273 192.88 536.113 193.72H546.073ZM569.06 211.72C566.1 211.72 563.92 211.06 562.52 209.74C561.12 208.38 560.42 206.5 560.42 204.1V186.52H557V185.32C557.84 185.04 558.68 184.66 559.52 184.18C560.4 183.66 561.2 183.1 561.92 182.5C562.68 181.86 563.36 181.16 563.96 180.4C564.56 179.64 565.04 178.84 565.4 178H566.96V185.02H573.2V186.52H566.96V202.12C566.96 203.04 566.98 203.96 567.02 204.88C567.06 205.76 567.2 206.56 567.44 207.28C567.68 208 568.06 208.58 568.58 209.02C569.14 209.46 569.9 209.68 570.86 209.68C571.9 209.68 572.7 209.46 573.26 209.02C573.86 208.54 574.38 207.96 574.82 207.28L575.6 207.94C575.12 208.86 574.34 209.72 573.26 210.52C572.18 211.32 570.78 211.72 569.06 211.72ZM593.791 184.36C593.791 185.12 593.771 185.74 593.731 186.22C593.731 186.7 593.731 187.22 593.731 187.78C593.731 188.34 593.731 189.06 593.731 189.94C593.771 190.82 593.791 191.66 593.791 192.46H592.591C592.591 191.7 592.451 190.92 592.171 190.12C591.931 189.32 591.551 188.6 591.031 187.96C590.551 187.32 589.911 186.8 589.111 186.4C588.351 185.96 587.451 185.74 586.411 185.74C585.131 185.74 584.151 186.04 583.471 186.64C582.791 187.2 582.451 187.94 582.451 188.86C582.451 189.58 582.691 190.24 583.171 190.84C583.691 191.44 584.331 192 585.091 192.52C585.851 193.04 586.691 193.52 587.611 193.96C588.531 194.4 589.391 194.86 590.191 195.34C591.071 195.86 591.891 196.4 592.651 196.96C593.411 197.48 594.051 198.08 594.571 198.76C595.131 199.4 595.571 200.14 595.891 200.98C596.211 201.82 596.371 202.78 596.371 203.86C596.371 205.22 596.071 206.4 595.471 207.4C594.911 208.36 594.191 209.16 593.311 209.8C592.431 210.44 591.431 210.92 590.311 211.24C589.231 211.56 588.191 211.72 587.191 211.72C586.031 211.72 584.851 211.54 583.651 211.18C582.451 210.86 581.391 210.36 580.471 209.68L579.511 211.18H578.431C578.431 210.3 578.431 209.56 578.431 208.96C578.471 208.36 578.491 207.72 578.491 207.04C578.491 206.36 578.471 205.68 578.431 205C578.391 204.28 578.371 203.52 578.371 202.72H579.571C579.571 203.72 579.731 204.68 580.051 205.6C580.411 206.48 580.911 207.28 581.551 208C582.191 208.68 582.951 209.24 583.831 209.68C584.751 210.08 585.771 210.28 586.891 210.28C587.491 210.28 588.071 210.2 588.631 210.04C589.191 209.88 589.691 209.64 590.131 209.32C590.571 208.96 590.911 208.52 591.151 208C591.431 207.48 591.571 206.86 591.571 206.14C591.571 205.46 591.391 204.86 591.031 204.34C590.711 203.82 590.271 203.36 589.711 202.96C589.151 202.52 588.511 202.12 587.791 201.76C587.111 201.4 586.411 201.02 585.691 200.62C584.851 200.14 583.991 199.64 583.111 199.12C582.271 198.6 581.491 197.98 580.771 197.26C580.091 196.54 579.531 195.72 579.091 194.8C578.691 193.84 578.491 192.72 578.491 191.44C578.491 190.36 578.711 189.38 579.151 188.5C579.631 187.62 580.231 186.88 580.951 186.28C581.671 185.64 582.491 185.16 583.411 184.84C584.331 184.52 585.271 184.36 586.231 184.36C587.591 184.36 588.671 184.52 589.471 184.84C590.311 185.12 591.031 185.42 591.631 185.74L592.771 184.36H593.791Z" fill="black"/>
<path d="M285.391 94.74C284.791 94.74 284.151 94.78 283.471 94.86C282.831 94.94 282.231 95.08 281.671 95.28C281.111 95.44 280.651 95.64 280.291 95.88C279.931 96.12 279.751 96.4 279.751 96.72C279.751 96.8 279.811 97.06 279.931 97.5C280.091 97.94 280.171 98.44 280.171 99C280.171 99.68 279.971 100.28 279.571 100.8C279.211 101.28 278.651 101.52 277.891 101.52C277.211 101.52 276.631 101.28 276.151 100.8C275.671 100.28 275.431 99.54 275.431 98.58C275.431 97.5 275.811 96.62 276.571 95.94C277.331 95.26 278.251 94.74 279.331 94.38C280.451 93.98 281.631 93.72 282.871 93.6C284.111 93.44 285.191 93.36 286.111 93.36C287.471 93.36 288.811 93.5 290.131 93.78C291.451 94.02 292.611 94.46 293.611 95.1C294.611 95.74 295.411 96.6 296.011 97.68C296.651 98.76 296.971 100.12 296.971 101.76V114.9C296.971 115.22 296.991 115.58 297.031 115.98C297.071 116.34 297.151 116.7 297.271 117.06C297.391 117.38 297.571 117.66 297.811 117.9C298.091 118.1 298.471 118.2 298.951 118.2C299.391 118.2 299.731 118.04 299.971 117.72C300.251 117.4 300.491 117.08 300.691 116.76L301.471 117.18C301.391 117.38 301.231 117.68 300.991 118.08C300.751 118.44 300.411 118.82 299.971 119.22C299.571 119.58 299.051 119.9 298.411 120.18C297.771 120.5 297.031 120.66 296.191 120.66C294.671 120.66 293.471 120.36 292.591 119.76C291.751 119.12 291.111 118.2 290.671 117C289.271 118.16 287.891 119.06 286.531 119.7C285.171 120.34 283.551 120.66 281.671 120.66C280.791 120.66 279.931 120.54 279.091 120.3C278.291 120.06 277.571 119.7 276.931 119.22C276.291 118.7 275.771 118.06 275.371 117.3C275.011 116.54 274.831 115.64 274.831 114.6C274.831 113.16 275.271 111.92 276.151 110.88C277.071 109.84 278.171 108.96 279.451 108.24C280.731 107.48 282.071 106.84 283.471 106.32C284.871 105.8 286.071 105.32 287.071 104.88C288.151 104.4 288.971 104 289.531 103.68C290.131 103.36 290.431 103.02 290.431 102.66V100.92C290.431 100.44 290.391 99.86 290.311 99.18C290.271 98.46 290.091 97.78 289.771 97.14C289.451 96.46 288.951 95.9 288.271 95.46C287.591 94.98 286.631 94.74 285.391 94.74ZM290.431 104.88C289.271 105.48 288.151 106.02 287.071 106.5C285.991 106.94 285.031 107.46 284.191 108.06C283.351 108.66 282.671 109.4 282.151 110.28C281.631 111.12 281.371 112.24 281.371 113.64C281.371 114.16 281.431 114.68 281.551 115.2C281.711 115.68 281.931 116.14 282.211 116.58C282.491 116.98 282.831 117.32 283.231 117.6C283.671 117.84 284.171 117.96 284.731 117.96C285.851 117.96 286.891 117.7 287.851 117.18C288.851 116.66 289.711 116.02 290.431 115.26V104.88ZM328.44 115.5C328.44 116.3 328.54 116.92 328.74 117.36C328.94 117.8 329.22 118.14 329.58 118.38C329.94 118.62 330.36 118.78 330.84 118.86C331.32 118.9 331.86 118.92 332.46 118.92V120C331.5 120 330.66 120 329.94 120C329.26 119.96 328.64 119.94 328.08 119.94C327.52 119.9 327 119.88 326.52 119.88C326.04 119.84 325.54 119.82 325.02 119.82C324.46 119.82 323.94 119.84 323.46 119.88C323.02 119.88 322.54 119.9 322.02 119.94C321.54 119.94 320.96 119.96 320.28 120C319.64 120 318.84 120 317.88 120V118.92C318.48 118.92 319.02 118.9 319.5 118.86C319.98 118.78 320.4 118.62 320.76 118.38C321.12 118.14 321.4 117.8 321.6 117.36C321.8 116.92 321.9 116.3 321.9 115.5V85.44C321.9 84.68 321.8 84.08 321.6 83.64C321.4 83.16 321.12 82.8 320.76 82.56C320.4 82.32 319.98 82.18 319.5 82.14C319.02 82.06 318.48 82.02 317.88 82.02V80.94C318.6 80.9 319.42 80.82 320.34 80.7C321.26 80.54 322.18 80.38 323.1 80.22C324.06 80.02 325 79.8 325.92 79.56C326.84 79.32 327.66 79.08 328.38 78.84V97.74C329.38 96.3 330.54 95.22 331.86 94.5C333.18 93.74 334.86 93.36 336.9 93.36C339.06 93.36 340.74 93.78 341.94 94.62C343.18 95.42 344.1 96.4 344.7 97.56C345.34 98.72 345.74 99.92 345.9 101.16C346.06 102.36 346.14 103.34 346.14 104.1V115.5C346.14 116.3 346.24 116.92 346.44 117.36C346.64 117.8 346.92 118.14 347.28 118.38C347.64 118.62 348.06 118.78 348.54 118.86C349.02 118.9 349.56 118.92 350.16 118.92V120C349.2 120 348.36 120 347.64 120C346.96 119.96 346.34 119.94 345.78 119.94C345.22 119.9 344.7 119.88 344.22 119.88C343.74 119.84 343.24 119.82 342.72 119.82C342.16 119.82 341.64 119.84 341.16 119.88C340.72 119.88 340.24 119.9 339.72 119.94C339.24 119.94 338.66 119.96 337.98 120C337.34 120 336.54 120 335.58 120V118.92C336.18 118.92 336.72 118.9 337.2 118.86C337.68 118.78 338.1 118.62 338.46 118.38C338.82 118.14 339.1 117.8 339.3 117.36C339.5 116.92 339.6 116.3 339.6 115.5V104.04C339.6 103.56 339.56 102.84 339.48 101.88C339.44 100.92 339.26 99.96 338.94 99C338.66 98.04 338.2 97.2 337.56 96.48C336.92 95.76 336 95.4 334.8 95.4C334 95.4 333.22 95.6 332.46 96C331.7 96.4 331.02 96.96 330.42 97.68C329.82 98.36 329.34 99.18 328.98 100.14C328.62 101.1 328.44 102.16 328.44 103.32V115.5ZM364.844 94.74C364.244 94.74 363.604 94.78 362.924 94.86C362.284 94.94 361.684 95.08 361.124 95.28C360.564 95.44 360.104 95.64 359.744 95.88C359.384 96.12 359.204 96.4 359.204 96.72C359.204 96.8 359.264 97.06 359.384 97.5C359.544 97.94 359.624 98.44 359.624 99C359.624 99.68 359.424 100.28 359.024 100.8C358.664 101.28 358.104 101.52 357.344 101.52C356.664 101.52 356.084 101.28 355.604 100.8C355.124 100.28 354.884 99.54 354.884 98.58C354.884 97.5 355.264 96.62 356.024 95.94C356.784 95.26 357.704 94.74 358.784 94.38C359.904 93.98 361.084 93.72 362.324 93.6C363.564 93.44 364.644 93.36 365.564 93.36C366.924 93.36 368.264 93.5 369.584 93.78C370.904 94.02 372.064 94.46 373.064 95.1C374.064 95.74 374.864 96.6 375.464 97.68C376.104 98.76 376.424 100.12 376.424 101.76V114.9C376.424 115.22 376.444 115.58 376.484 115.98C376.524 116.34 376.604 116.7 376.724 117.06C376.844 117.38 377.024 117.66 377.264 117.9C377.544 118.1 377.924 118.2 378.404 118.2C378.844 118.2 379.184 118.04 379.424 117.72C379.704 117.4 379.944 117.08 380.144 116.76L380.924 117.18C380.844 117.38 380.684 117.68 380.444 118.08C380.204 118.44 379.864 118.82 379.424 119.22C379.024 119.58 378.504 119.9 377.864 120.18C377.224 120.5 376.484 120.66 375.644 120.66C374.124 120.66 372.924 120.36 372.044 119.76C371.204 119.12 370.564 118.2 370.124 117C368.724 118.16 367.344 119.06 365.984 119.7C364.624 120.34 363.004 120.66 361.124 120.66C360.244 120.66 359.384 120.54 358.544 120.3C357.744 120.06 357.024 119.7 356.384 119.22C355.744 118.7 355.224 118.06 354.824 117.3C354.464 116.54 354.284 115.64 354.284 114.6C354.284 113.16 354.724 111.92 355.604 110.88C356.524 109.84 357.624 108.96 358.904 108.24C360.184 107.48 361.524 106.84 362.924 106.32C364.324 105.8 365.524 105.32 366.524 104.88C367.604 104.4 368.424 104 368.984 103.68C369.584 103.36 369.884 103.02 369.884 102.66V100.92C369.884 100.44 369.844 99.86 369.764 99.18C369.724 98.46 369.544 97.78 369.224 97.14C368.904 96.46 368.404 95.9 367.724 95.46C367.044 94.98 366.084 94.74 364.844 94.74ZM369.884 104.88C368.724 105.48 367.604 106.02 366.524 106.5C365.444 106.94 364.484 107.46 363.644 108.06C362.804 108.66 362.124 109.4 361.604 110.28C361.084 111.12 360.824 112.24 360.824 113.64C360.824 114.16 360.884 114.68 361.004 115.2C361.164 115.68 361.384 116.14 361.664 116.58C361.944 116.98 362.284 117.32 362.684 117.6C363.124 117.84 363.624 117.96 364.184 117.96C365.304 117.96 366.344 117.7 367.304 117.18C368.304 116.66 369.164 116.02 369.884 115.26V104.88ZM386.463 100.14C386.463 99.38 386.363 98.78 386.163 98.34C385.963 97.86 385.683 97.5 385.323 97.26C384.963 97.02 384.543 96.88 384.063 96.84C383.583 96.76 383.043 96.72 382.443 96.72V95.64C383.123 95.56 383.883 95.46 384.723 95.34C385.563 95.18 386.403 95.02 387.243 94.86C388.083 94.66 388.903 94.44 389.703 94.2C390.503 93.96 391.223 93.7 391.863 93.42C392.063 94.22 392.203 94.94 392.283 95.58C392.363 96.22 392.423 96.8 392.463 97.32C393.383 96.08 394.523 95.12 395.883 94.44C397.243 93.72 398.703 93.36 400.263 93.36C402.343 93.36 404.183 93.72 405.783 94.44C407.383 95.16 408.723 96.16 409.803 97.44C410.883 98.68 411.703 100.18 412.263 101.94C412.823 103.66 413.103 105.56 413.103 107.64C413.103 109.4 412.783 111.08 412.143 112.68C411.543 114.24 410.663 115.62 409.503 116.82C408.383 118.02 407.043 118.98 405.483 119.7C403.923 120.38 402.183 120.72 400.263 120.72C398.543 120.72 397.063 120.42 395.823 119.82C394.623 119.18 393.683 118.4 393.003 117.48V131.16C393.003 131.96 393.103 132.58 393.303 133.02C393.503 133.46 393.783 133.8 394.143 134.04C394.503 134.28 394.923 134.42 395.403 134.46C395.883 134.54 396.423 134.58 397.023 134.58V135.66C396.063 135.66 395.223 135.64 394.503 135.6C393.783 135.6 393.143 135.58 392.583 135.54C392.023 135.54 391.483 135.52 390.963 135.48C390.483 135.48 389.983 135.48 389.463 135.48C388.903 135.48 388.403 135.48 387.963 135.48C387.523 135.52 387.043 135.54 386.523 135.54C386.043 135.58 385.483 135.6 384.843 135.6C384.203 135.64 383.403 135.66 382.443 135.66V134.58C383.043 134.58 383.583 134.54 384.063 134.46C384.543 134.42 384.963 134.28 385.323 134.04C385.683 133.8 385.963 133.46 386.163 133.02C386.363 132.58 386.463 131.96 386.463 131.16V100.14ZM405.903 107.22C405.903 105.86 405.803 104.48 405.603 103.08C405.443 101.64 405.123 100.34 404.643 99.18C404.163 98.02 403.483 97.08 402.603 96.36C401.763 95.6 400.683 95.22 399.363 95.22C397.523 95.22 396.003 95.86 394.803 97.14C393.603 98.38 393.003 100.26 393.003 102.78V111.9C393.003 113.86 393.563 115.54 394.683 116.94C395.803 118.34 397.403 119.04 399.483 119.04C400.683 119.04 401.683 118.72 402.483 118.08C403.283 117.4 403.943 116.52 404.463 115.44C404.983 114.32 405.343 113.06 405.543 111.66C405.783 110.22 405.903 108.74 405.903 107.22ZM420.448 100.14C420.448 99.38 420.348 98.78 420.148 98.34C419.948 97.86 419.668 97.5 419.308 97.26C418.948 97.02 418.528 96.88 418.048 96.84C417.568 96.76 417.028 96.72 416.428 96.72V95.64C417.108 95.56 417.868 95.46 418.708 95.34C419.548 95.18 420.388 95.02 421.228 94.86C422.068 94.66 422.888 94.44 423.688 94.2C424.488 93.96 425.208 93.7 425.848 93.42C426.048 94.22 426.188 94.94 426.268 95.58C426.348 96.22 426.408 96.8 426.448 97.32C427.368 96.08 428.508 95.12 429.868 94.44C431.228 93.72 432.688 93.36 434.248 93.36C436.328 93.36 438.168 93.72 439.768 94.44C441.368 95.16 442.708 96.16 443.788 97.44C444.868 98.68 445.688 100.18 446.248 101.94C446.808 103.66 447.088 105.56 447.088 107.64C447.088 109.4 446.768 111.08 446.128 112.68C445.528 114.24 444.648 115.62 443.488 116.82C442.368 118.02 441.028 118.98 439.468 119.7C437.908 120.38 436.168 120.72 434.248 120.72C432.528 120.72 431.048 120.42 429.808 119.82C428.608 119.18 427.668 118.4 426.988 117.48V131.16C426.988 131.96 427.088 132.58 427.288 133.02C427.488 133.46 427.768 133.8 428.128 134.04C428.488 134.28 428.908 134.42 429.388 134.46C429.868 134.54 430.408 134.58 431.008 134.58V135.66C430.048 135.66 429.208 135.64 428.488 135.6C427.768 135.6 427.128 135.58 426.568 135.54C426.008 135.54 425.468 135.52 424.948 135.48C424.468 135.48 423.968 135.48 423.448 135.48C422.888 135.48 422.388 135.48 421.948 135.48C421.508 135.52 421.028 135.54 420.508 135.54C420.028 135.58 419.468 135.6 418.828 135.6C418.188 135.64 417.388 135.66 416.428 135.66V134.58C417.028 134.58 417.568 134.54 418.048 134.46C418.528 134.42 418.948 134.28 419.308 134.04C419.668 133.8 419.948 133.46 420.148 133.02C420.348 132.58 420.448 131.96 420.448 131.16V100.14ZM439.888 107.22C439.888 105.86 439.788 104.48 439.588 103.08C439.428 101.64 439.108 100.34 438.628 99.18C438.148 98.02 437.468 97.08 436.588 96.36C435.748 95.6 434.668 95.22 433.348 95.22C431.508 95.22 429.988 95.86 428.788 97.14C427.588 98.38 426.988 100.26 426.988 102.78V111.9C426.988 113.86 427.548 115.54 428.668 116.94C429.788 118.34 431.388 119.04 433.468 119.04C434.668 119.04 435.668 118.72 436.468 118.08C437.268 117.4 437.928 116.52 438.448 115.44C438.968 114.32 439.328 113.06 439.528 111.66C439.768 110.22 439.888 108.74 439.888 107.22ZM462.218 119.76L453.878 100.38C453.198 98.82 452.518 97.56 451.838 96.6C451.198 95.6 450.278 95.1 449.078 95.1V94.02C449.958 94.02 450.698 94.04 451.298 94.08C451.938 94.08 452.498 94.1 452.978 94.14C453.498 94.14 453.978 94.16 454.418 94.2C454.858 94.2 455.318 94.2 455.798 94.2C456.318 94.2 456.798 94.2 457.238 94.2C457.678 94.16 458.158 94.14 458.678 94.14C459.198 94.1 459.758 94.08 460.358 94.08C460.998 94.04 461.738 94.02 462.578 94.02V95.1C461.858 95.1 461.178 95.22 460.538 95.46C459.938 95.66 459.638 96.26 459.638 97.26C459.638 97.46 459.678 97.72 459.758 98.04C459.878 98.32 459.978 98.58 460.058 98.82L465.638 111.96L471.038 99.36C471.158 99.04 471.258 98.7 471.338 98.34C471.458 97.98 471.518 97.68 471.518 97.44C471.518 96.52 471.258 95.92 470.738 95.64C470.218 95.32 469.518 95.14 468.638 95.1V94.02C469.238 94.02 469.718 94.04 470.078 94.08C470.478 94.08 470.818 94.08 471.098 94.08C471.418 94.08 471.718 94.1 471.998 94.14C472.278 94.14 472.578 94.14 472.898 94.14C473.538 94.14 474.118 94.12 474.638 94.08C475.158 94.04 475.958 94.02 477.038 94.02V95.1C475.958 95.14 475.098 95.54 474.458 96.3C473.818 97.02 473.198 98.08 472.598 99.48L459.278 130.26C459.038 130.82 458.758 131.44 458.438 132.12C458.118 132.8 457.738 133.44 457.298 134.04C456.898 134.64 456.438 135.14 455.918 135.54C455.398 135.94 454.818 136.14 454.178 136.14C453.738 136.14 453.318 135.98 452.918 135.66C452.558 135.38 452.378 134.96 452.378 134.4C452.378 133.96 452.498 133.58 452.738 133.26C452.978 132.98 453.258 132.74 453.578 132.54C453.898 132.34 454.238 132.16 454.598 132C454.998 131.88 455.358 131.78 455.678 131.7C455.998 131.62 456.438 131.26 456.998 130.62C457.558 130.02 458.118 129.1 458.678 127.86L462.218 119.76ZM496.151 100.14C496.151 99.38 496.051 98.78 495.851 98.34C495.651 97.86 495.371 97.5 495.011 97.26C494.651 97.02 494.231 96.88 493.751 96.84C493.271 96.76 492.731 96.72 492.131 96.72V95.64C492.811 95.56 493.571 95.46 494.411 95.34C495.251 95.18 496.091 95.02 496.931 94.86C497.771 94.66 498.591 94.44 499.391 94.2C500.191 93.96 500.911 93.7 501.551 93.42C501.751 94.22 501.891 94.94 501.971 95.58C502.051 96.22 502.111 96.8 502.151 97.32C503.071 96.08 504.211 95.12 505.571 94.44C506.931 93.72 508.391 93.36 509.951 93.36C512.031 93.36 513.871 93.72 515.471 94.44C517.071 95.16 518.411 96.16 519.491 97.44C520.571 98.68 521.391 100.18 521.951 101.94C522.511 103.66 522.791 105.56 522.791 107.64C522.791 109.4 522.471 111.08 521.831 112.68C521.231 114.24 520.351 115.62 519.191 116.82C518.071 118.02 516.731 118.98 515.171 119.7C513.611 120.38 511.871 120.72 509.951 120.72C508.231 120.72 506.751 120.42 505.511 119.82C504.311 119.18 503.371 118.4 502.691 117.48V131.16C502.691 131.96 502.791 132.58 502.991 133.02C503.191 133.46 503.471 133.8 503.831 134.04C504.191 134.28 504.611 134.42 505.091 134.46C505.571 134.54 506.111 134.58 506.711 134.58V135.66C505.751 135.66 504.911 135.64 504.191 135.6C503.471 135.6 502.831 135.58 502.271 135.54C501.711 135.54 501.171 135.52 500.651 135.48C500.171 135.48 499.671 135.48 499.151 135.48C498.591 135.48 498.091 135.48 497.651 135.48C497.211 135.52 496.731 135.54 496.211 135.54C495.731 135.58 495.171 135.6 494.531 135.6C493.891 135.64 493.091 135.66 492.131 135.66V134.58C492.731 134.58 493.271 134.54 493.751 134.46C494.231 134.42 494.651 134.28 495.011 134.04C495.371 133.8 495.651 133.46 495.851 133.02C496.051 132.58 496.151 131.96 496.151 131.16V100.14ZM515.591 107.22C515.591 105.86 515.491 104.48 515.291 103.08C515.131 101.64 514.811 100.34 514.331 99.18C513.851 98.02 513.171 97.08 512.291 96.36C511.451 95.6 510.371 95.22 509.051 95.22C507.211 95.22 505.691 95.86 504.491 97.14C503.291 98.38 502.691 100.26 502.691 102.78V111.9C502.691 113.86 503.251 115.54 504.371 116.94C505.491 118.34 507.091 119.04 509.171 119.04C510.371 119.04 511.371 118.72 512.171 118.08C512.971 117.4 513.631 116.52 514.151 115.44C514.671 114.32 515.031 113.06 515.231 111.66C515.471 110.22 515.591 108.74 515.591 107.22ZM530.435 85.68C530.435 84.92 530.335 84.32 530.135 83.88C529.935 83.4 529.655 83.04 529.295 82.8C528.935 82.56 528.515 82.42 528.035 82.38C527.555 82.3 527.015 82.26 526.415 82.26V81.18C527.135 81.14 527.955 81.06 528.875 80.94C529.795 80.78 530.735 80.62 531.695 80.46C532.655 80.26 533.595 80.06 534.515 79.86C535.435 79.62 536.255 79.36 536.975 79.08V115.5C536.975 116.3 537.075 116.92 537.275 117.36C537.475 117.8 537.755 118.14 538.115 118.38C538.475 118.62 538.895 118.78 539.375 118.86C539.855 118.9 540.395 118.92 540.995 118.92V120C540.035 120 539.195 120 538.475 120C537.795 119.96 537.175 119.94 536.615 119.94C536.095 119.9 535.595 119.88 535.115 119.88C534.635 119.84 534.135 119.82 533.615 119.82C533.055 119.82 532.535 119.84 532.055 119.88C531.615 119.88 531.135 119.9 530.615 119.94C530.095 119.94 529.495 119.96 528.815 120C528.175 120 527.375 120 526.415 120V118.92C527.015 118.92 527.555 118.9 528.035 118.86C528.515 118.78 528.935 118.62 529.295 118.38C529.655 118.14 529.935 117.8 530.135 117.36C530.335 116.92 530.435 116.3 530.435 115.5V85.68ZM555.859 94.74C555.259 94.74 554.619 94.78 553.939 94.86C553.299 94.94 552.699 95.08 552.139 95.28C551.579 95.44 551.119 95.64 550.759 95.88C550.399 96.12 550.219 96.4 550.219 96.72C550.219 96.8 550.279 97.06 550.399 97.5C550.559 97.94 550.639 98.44 550.639 99C550.639 99.68 550.439 100.28 550.039 100.8C549.679 101.28 549.119 101.52 548.359 101.52C547.679 101.52 547.099 101.28 546.619 100.8C546.139 100.28 545.899 99.54 545.899 98.58C545.899 97.5 546.279 96.62 547.039 95.94C547.799 95.26 548.719 94.74 549.799 94.38C550.919 93.98 552.099 93.72 553.339 93.6C554.579 93.44 555.659 93.36 556.579 93.36C557.939 93.36 559.279 93.5 560.599 93.78C561.919 94.02 563.079 94.46 564.079 95.1C565.079 95.74 565.879 96.6 566.479 97.68C567.119 98.76 567.439 100.12 567.439 101.76V114.9C567.439 115.22 567.459 115.58 567.499 115.98C567.539 116.34 567.619 116.7 567.739 117.06C567.859 117.38 568.039 117.66 568.279 117.9C568.559 118.1 568.939 118.2 569.419 118.2C569.859 118.2 570.199 118.04 570.439 117.72C570.719 117.4 570.959 117.08 571.159 116.76L571.939 117.18C571.859 117.38 571.699 117.68 571.459 118.08C571.219 118.44 570.879 118.82 570.439 119.22C570.039 119.58 569.519 119.9 568.879 120.18C568.239 120.5 567.499 120.66 566.659 120.66C565.139 120.66 563.939 120.36 563.059 119.76C562.219 119.12 561.579 118.2 561.139 117C559.739 118.16 558.359 119.06 556.999 119.7C555.639 120.34 554.019 120.66 552.139 120.66C551.259 120.66 550.399 120.54 549.559 120.3C548.759 120.06 548.039 119.7 547.399 119.22C546.759 118.7 546.239 118.06 545.839 117.3C545.479 116.54 545.299 115.64 545.299 114.6C545.299 113.16 545.739 111.92 546.619 110.88C547.539 109.84 548.639 108.96 549.919 108.24C551.199 107.48 552.539 106.84 553.939 106.32C555.339 105.8 556.539 105.32 557.539 104.88C558.619 104.4 559.439 104 559.999 103.68C560.599 103.36 560.899 103.02 560.899 102.66V100.92C560.899 100.44 560.859 99.86 560.779 99.18C560.739 98.46 560.559 97.78 560.239 97.14C559.919 96.46 559.419 95.9 558.739 95.46C558.059 94.98 557.099 94.74 555.859 94.74ZM560.899 104.88C559.739 105.48 558.619 106.02 557.539 106.5C556.459 106.94 555.499 107.46 554.659 108.06C553.819 108.66 553.139 109.4 552.619 110.28C552.099 111.12 551.839 112.24 551.839 113.64C551.839 114.16 551.899 114.68 552.019 115.2C552.179 115.68 552.399 116.14 552.679 116.58C552.959 116.98 553.299 117.32 553.699 117.6C554.139 117.84 554.639 117.96 555.199 117.96C556.319 117.96 557.359 117.7 558.319 117.18C559.319 116.66 560.179 116.02 560.899 115.26V104.88ZM574.945 107.58C574.945 105.58 575.325 103.72 576.085 102C576.845 100.24 577.865 98.74 579.145 97.5C580.465 96.22 582.005 95.22 583.765 94.5C585.525 93.78 587.425 93.42 589.465 93.42C589.985 93.42 590.685 93.5 591.565 93.66C592.445 93.78 593.305 94.02 594.145 94.38C594.985 94.7 595.705 95.18 596.305 95.82C596.945 96.42 597.265 97.2 597.265 98.16C597.265 98.8 597.065 99.38 596.665 99.9C596.305 100.42 595.685 100.68 594.805 100.68C594.205 100.68 593.685 100.44 593.245 99.96C592.805 99.44 592.585 98.78 592.585 97.98C592.585 97.66 592.605 97.32 592.645 96.96C592.725 96.6 592.765 96.4 592.765 96.36C592.765 96.12 592.645 95.9 592.405 95.7C592.205 95.5 591.945 95.34 591.625 95.22C591.305 95.1 590.945 95 590.545 94.92C590.185 94.84 589.825 94.8 589.465 94.8C588.065 94.8 586.885 95.16 585.925 95.88C585.005 96.6 584.245 97.54 583.645 98.7C583.085 99.86 582.685 101.18 582.445 102.66C582.205 104.14 582.085 105.64 582.085 107.16C582.085 110.92 582.745 113.82 584.065 115.86C585.425 117.86 587.245 118.86 589.525 118.86C590.485 118.86 591.365 118.76 592.165 118.56C593.005 118.32 593.745 118.02 594.385 117.66C595.065 117.3 595.645 116.92 596.125 116.52C596.605 116.08 597.025 115.66 597.385 115.26L598.045 115.86C596.765 117.54 595.205 118.78 593.365 119.58C591.525 120.34 589.705 120.72 587.905 120.72C586.145 120.72 584.485 120.44 582.925 119.88C581.365 119.28 579.985 118.42 578.785 117.3C577.625 116.18 576.685 114.82 575.965 113.22C575.285 111.58 574.945 109.7 574.945 107.58ZM625.484 115.62C625.004 116.22 624.424 116.82 623.744 117.42C623.104 118.02 622.364 118.56 621.524 119.04C620.684 119.52 619.724 119.92 618.644 120.24C617.604 120.56 616.444 120.72 615.164 120.72C613.484 120.72 611.844 120.44 610.244 119.88C608.644 119.28 607.204 118.42 605.924 117.3C604.644 116.18 603.604 114.8 602.804 113.16C602.044 111.48 601.664 109.58 601.664 107.46C601.664 105.54 602.024 103.74 602.744 102.06C603.464 100.38 604.444 98.9 605.684 97.62C606.924 96.34 608.384 95.34 610.064 94.62C611.744 93.86 613.544 93.48 615.464 93.48C616.864 93.48 618.224 93.72 619.544 94.2C620.864 94.64 622.024 95.3 623.024 96.18C624.064 97.02 624.904 98.04 625.544 99.24C626.224 100.44 626.624 101.76 626.744 103.2C626.744 103.44 626.724 103.66 626.684 103.86C626.684 104.06 626.584 104.16 626.384 104.16H608.804C608.724 104.84 608.664 105.42 608.624 105.9C608.624 106.34 608.624 106.84 608.624 107.4C608.624 109.08 608.804 110.64 609.164 112.08C609.564 113.48 610.104 114.7 610.784 115.74C611.464 116.74 612.304 117.52 613.304 118.08C614.304 118.64 615.424 118.92 616.664 118.92C617.744 118.92 618.704 118.78 619.544 118.5C620.384 118.22 621.144 117.9 621.824 117.54C622.504 117.14 623.084 116.72 623.564 116.28C624.044 115.8 624.464 115.38 624.824 115.02L625.484 115.62ZM618.944 102.72C619.584 102.72 619.904 102.4 619.904 101.76C619.904 101 619.824 100.22 619.664 99.42C619.544 98.58 619.304 97.82 618.944 97.14C618.584 96.46 618.104 95.9 617.504 95.46C616.944 95.02 616.224 94.8 615.344 94.8C614.224 94.8 613.284 95.06 612.524 95.58C611.804 96.1 611.204 96.76 610.724 97.56C610.244 98.32 609.864 99.16 609.584 100.08C609.344 101 609.144 101.88 608.984 102.72H618.944ZM642.375 93.96C644.015 93.96 645.335 94 646.335 94.08C647.375 94.16 648.395 94.2 649.395 94.2C649.915 94.2 650.395 94.2 650.835 94.2C651.275 94.16 651.735 94.12 652.215 94.08C652.735 94.04 653.275 94.02 653.835 94.02C654.435 93.98 655.155 93.96 655.995 93.96V95.04C655.195 95.04 654.475 95.2 653.835 95.52C653.195 95.8 652.855 96.4 652.815 97.32C652.815 97.76 652.895 98.22 653.055 98.7L658.095 112.62L664.755 94.02H666.795L674.535 112.98L679.215 99.66C679.495 98.82 679.635 98.1 679.635 97.5C679.635 96.5 679.355 95.86 678.795 95.58C678.235 95.26 677.475 95.08 676.515 95.04V93.96C677.595 93.96 678.435 93.98 679.035 94.02C679.675 94.06 680.335 94.08 681.015 94.08C681.655 94.08 682.235 94.06 682.755 94.02C683.275 93.98 684.055 93.96 685.095 93.96V95.04C684.255 95.04 683.475 95.36 682.755 96C682.035 96.64 681.435 97.66 680.955 99.06L673.275 121.14H671.175L663.495 102.12L656.595 121.14H654.495L646.995 100.26C646.795 99.66 646.575 99.06 646.335 98.46C646.095 97.82 645.795 97.26 645.435 96.78C645.115 96.26 644.695 95.84 644.175 95.52C643.695 95.2 643.095 95.04 642.375 95.04V93.96ZM698.049 115.5C698.049 116.3 698.149 116.92 698.349 117.36C698.549 117.8 698.829 118.14 699.189 118.38C699.549 118.62 699.969 118.78 700.449 118.86C700.929 118.9 701.469 118.92 702.069 118.92V120C701.109 120 700.269 120 699.549 120C698.869 119.96 698.249 119.94 697.689 119.94C697.129 119.9 696.609 119.88 696.129 119.88C695.649 119.84 695.149 119.82 694.629 119.82C694.069 119.82 693.549 119.84 693.069 119.88C692.629 119.88 692.149 119.9 691.629 119.94C691.149 119.94 690.569 119.96 689.889 120C689.249 120 688.449 120 687.489 120V118.92C688.089 118.92 688.629 118.9 689.109 118.86C689.589 118.78 690.009 118.62 690.369 118.38C690.729 118.14 691.009 117.8 691.209 117.36C691.409 116.92 691.509 116.3 691.509 115.5V85.44C691.509 84.68 691.409 84.08 691.209 83.64C691.009 83.16 690.729 82.8 690.369 82.56C690.009 82.32 689.589 82.18 689.109 82.14C688.629 82.06 688.089 82.02 687.489 82.02V80.94C688.209 80.9 689.029 80.82 689.949 80.7C690.869 80.54 691.789 80.38 692.709 80.22C693.669 80.02 694.609 79.8 695.529 79.56C696.449 79.32 697.269 79.08 697.989 78.84V97.74C698.989 96.3 700.149 95.22 701.469 94.5C702.789 93.74 704.469 93.36 706.509 93.36C708.669 93.36 710.349 93.78 711.549 94.62C712.789 95.42 713.709 96.4 714.309 97.56C714.949 98.72 715.349 99.92 715.509 101.16C715.669 102.36 715.749 103.34 715.749 104.1V115.5C715.749 116.3 715.849 116.92 716.049 117.36C716.249 117.8 716.529 118.14 716.889 118.38C717.249 118.62 717.669 118.78 718.149 118.86C718.629 118.9 719.169 118.92 719.769 118.92V120C718.809 120 717.969 120 717.249 120C716.569 119.96 715.949 119.94 715.389 119.94C714.829 119.9 714.309 119.88 713.829 119.88C713.349 119.84 712.849 119.82 712.329 119.82C711.769 119.82 711.249 119.84 710.769 119.88C710.329 119.88 709.849 119.9 709.329 119.94C708.849 119.94 708.269 119.96 707.589 120C706.949 120 706.149 120 705.189 120V118.92C705.789 118.92 706.329 118.9 706.809 118.86C707.289 118.78 707.709 118.62 708.069 118.38C708.429 118.14 708.709 117.8 708.909 117.36C709.109 116.92 709.209 116.3 709.209 115.5V104.04C709.209 103.56 709.169 102.84 709.089 101.88C709.049 100.92 708.869 99.96 708.549 99C708.269 98.04 707.809 97.2 707.169 96.48C706.529 95.76 705.609 95.4 704.409 95.4C703.609 95.4 702.829 95.6 702.069 96C701.309 96.4 700.629 96.96 700.029 97.68C699.429 98.36 698.949 99.18 698.589 100.14C698.229 101.1 698.049 102.16 698.049 103.32V115.5ZM747.593 115.62C747.113 116.22 746.533 116.82 745.853 117.42C745.213 118.02 744.473 118.56 743.633 119.04C742.793 119.52 741.833 119.92 740.753 120.24C739.713 120.56 738.553 120.72 737.273 120.72C735.593 120.72 733.953 120.44 732.353 119.88C730.753 119.28 729.313 118.42 728.033 117.3C726.753 116.18 725.713 114.8 724.913 113.16C724.153 111.48 723.773 109.58 723.773 107.46C723.773 105.54 724.133 103.74 724.853 102.06C725.573 100.38 726.553 98.9 727.793 97.62C729.033 96.34 730.493 95.34 732.173 94.62C733.853 93.86 735.653 93.48 737.573 93.48C738.973 93.48 740.333 93.72 741.653 94.2C742.973 94.64 744.133 95.3 745.133 96.18C746.173 97.02 747.013 98.04 747.653 99.24C748.333 100.44 748.733 101.76 748.853 103.2C748.853 103.44 748.833 103.66 748.793 103.86C748.793 104.06 748.693 104.16 748.493 104.16H730.913C730.833 104.84 730.773 105.42 730.733 105.9C730.733 106.34 730.733 106.84 730.733 107.4C730.733 109.08 730.913 110.64 731.273 112.08C731.673 113.48 732.213 114.7 732.893 115.74C733.573 116.74 734.413 117.52 735.413 118.08C736.413 118.64 737.533 118.92 738.773 118.92C739.853 118.92 740.813 118.78 741.653 118.5C742.493 118.22 743.253 117.9 743.933 117.54C744.613 117.14 745.193 116.72 745.673 116.28C746.153 115.8 746.573 115.38 746.933 115.02L747.593 115.62ZM741.053 102.72C741.693 102.72 742.013 102.4 742.013 101.76C742.013 101 741.933 100.22 741.773 99.42C741.653 98.58 741.413 97.82 741.053 97.14C740.693 96.46 740.213 95.9 739.613 95.46C739.053 95.02 738.333 94.8 737.453 94.8C736.333 94.8 735.393 95.06 734.633 95.58C733.913 96.1 733.313 96.76 732.833 97.56C732.353 98.32 731.973 99.16 731.693 100.08C731.453 101 731.253 101.88 731.093 102.72H741.053ZM763.56 115.5C763.56 116.3 763.66 116.92 763.86 117.36C764.06 117.8 764.34 118.14 764.7 118.38C765.06 118.62 765.48 118.78 765.96 118.86C766.44 118.9 766.98 118.92 767.58 118.92V120C766.62 120 765.8 120 765.12 120C764.44 119.96 763.82 119.94 763.26 119.94C762.74 119.9 762.24 119.88 761.76 119.88C761.32 119.84 760.84 119.82 760.32 119.82C759.76 119.82 759.24 119.84 758.76 119.88C758.32 119.88 757.82 119.9 757.26 119.94C756.74 119.94 756.14 119.96 755.46 120C754.78 120 753.96 120 753 120V118.92C753.6 118.92 754.14 118.9 754.62 118.86C755.1 118.78 755.52 118.62 755.88 118.38C756.24 118.14 756.52 117.8 756.72 117.36C756.92 116.92 757.02 116.3 757.02 115.5V100.08C757.02 98.52 756.64 97.52 755.88 97.08C755.12 96.64 754.16 96.42 753 96.42V95.34C753.68 95.26 754.44 95.16 755.28 95.04C756.12 94.88 756.96 94.72 757.8 94.56C758.64 94.36 759.46 94.14 760.26 93.9C761.06 93.66 761.78 93.4 762.42 93.12C762.66 94 762.84 94.98 762.96 96.06C763.12 97.1 763.22 98.14 763.26 99.18C764.22 97.22 765.4 95.72 766.8 94.68C768.24 93.64 769.8 93.12 771.48 93.12C771.88 93.12 772.34 93.16 772.86 93.24C773.42 93.32 773.94 93.5 774.42 93.78C774.9 94.02 775.3 94.36 775.62 94.8C775.98 95.24 776.16 95.82 776.16 96.54C776.16 97.1 775.94 97.6 775.5 98.04C775.1 98.48 774.54 98.7 773.82 98.7C773.22 98.7 772.74 98.56 772.38 98.28C772.06 97.96 771.8 97.62 771.6 97.26C771.44 96.9 771.3 96.56 771.18 96.24C771.1 95.92 771.02 95.72 770.94 95.64C770.62 95.4 770.22 95.28 769.74 95.28C768.9 95.28 768.1 95.62 767.34 96.3C766.62 96.94 765.96 97.74 765.36 98.7C764.8 99.66 764.36 100.7 764.04 101.82C763.72 102.9 763.56 103.88 763.56 104.76V115.5ZM802.202 115.62C801.722 116.22 801.142 116.82 800.462 117.42C799.822 118.02 799.082 118.56 798.242 119.04C797.402 119.52 796.442 119.92 795.362 120.24C794.322 120.56 793.162 120.72 791.882 120.72C790.202 120.72 788.562 120.44 786.962 119.88C785.362 119.28 783.922 118.42 782.642 117.3C781.362 116.18 780.322 114.8 779.522 113.16C778.762 111.48 778.382 109.58 778.382 107.46C778.382 105.54 778.742 103.74 779.462 102.06C780.182 100.38 781.162 98.9 782.402 97.62C783.642 96.34 785.102 95.34 786.782 94.62C788.462 93.86 790.262 93.48 792.182 93.48C793.582 93.48 794.942 93.72 796.262 94.2C797.582 94.64 798.742 95.3 799.742 96.18C800.782 97.02 801.622 98.04 802.262 99.24C802.942 100.44 803.342 101.76 803.462 103.2C803.462 103.44 803.442 103.66 803.402 103.86C803.402 104.06 803.302 104.16 803.102 104.16H785.522C785.442 104.84 785.382 105.42 785.342 105.9C785.342 106.34 785.342 106.84 785.342 107.4C785.342 109.08 785.522 110.64 785.882 112.08C786.282 113.48 786.822 114.7 787.502 115.74C788.182 116.74 789.022 117.52 790.022 118.08C791.022 118.64 792.142 118.92 793.382 118.92C794.462 118.92 795.422 118.78 796.262 118.5C797.102 118.22 797.862 117.9 798.542 117.54C799.222 117.14 799.802 116.72 800.282 116.28C800.762 115.8 801.182 115.38 801.542 115.02L802.202 115.62ZM795.662 102.72C796.302 102.72 796.622 102.4 796.622 101.76C796.622 101 796.542 100.22 796.382 99.42C796.262 98.58 796.022 97.82 795.662 97.14C795.302 96.46 794.822 95.9 794.222 95.46C793.662 95.02 792.942 94.8 792.062 94.8C790.942 94.8 790.002 95.06 789.242 95.58C788.522 96.1 787.922 96.76 787.442 97.56C786.962 98.32 786.582 99.16 786.302 100.08C786.062 101 785.862 101.88 785.702 102.72H795.662Z" fill="black"/>
<path d="M623 178H878" stroke="#D4C749" stroke-dasharray="2 2"/>
<path d="M623 158H878" stroke="#D4C749" stroke-dasharray="2 2"/>
<path d="M623 219L878 219" stroke="#D4C749" stroke-dasharray="2 2"/>
<path d="M623 242H878" stroke="#D4C749" stroke-dasharray="2 2"/>
<path d="M779.661 253.578V261H778.672V253.578H779.661ZM781.902 256.72V261H780.913V256.72H781.902ZM780.764 254.94C780.764 254.767 780.827 254.618 780.953 254.492C781.079 254.366 781.229 254.303 781.405 254.303C781.584 254.303 781.736 254.366 781.862 254.492C781.988 254.615 782.051 254.766 782.051 254.944C782.051 255.123 781.988 255.275 781.862 255.401C781.739 255.527 781.588 255.59 781.41 255.59C781.231 255.59 781.079 255.527 780.953 255.401C780.827 255.275 780.764 255.122 780.764 254.94ZM783.154 256.72H784.147V257.115C784.493 256.772 784.883 256.601 785.316 256.601C785.814 256.601 786.203 256.758 786.481 257.071C786.721 257.338 786.841 257.773 786.841 258.376V261H785.848V258.609C785.848 258.188 785.79 257.896 785.672 257.735C785.558 257.571 785.35 257.489 785.048 257.489C784.72 257.489 784.487 257.597 784.35 257.814C784.215 258.028 784.147 258.401 784.147 258.935V261H783.154V256.72ZM789.083 253.578V258.104L790.476 256.72H791.803L789.944 258.517L791.939 261H790.656L789.241 259.194L789.083 259.352V261H788.094V253.578H789.083Z" fill="black"/>
<path d="M815.649 145.093H812.582C812.608 145.444 812.722 145.724 812.924 145.932C813.126 146.137 813.386 146.24 813.702 146.24C813.948 146.24 814.152 146.181 814.313 146.064C814.471 145.947 814.651 145.73 814.854 145.414L815.688 145.879C815.56 146.099 815.423 146.288 815.28 146.446C815.136 146.602 814.982 146.73 814.818 146.833C814.654 146.933 814.477 147.006 814.287 147.053C814.096 147.1 813.89 147.123 813.667 147.123C813.028 147.123 812.516 146.918 812.129 146.508C811.742 146.095 811.549 145.547 811.549 144.864C811.549 144.188 811.736 143.64 812.111 143.221C812.489 142.808 812.99 142.601 813.614 142.601C814.244 142.601 814.742 142.802 815.108 143.203C815.472 143.602 815.653 144.154 815.653 144.86L815.649 145.093ZM814.634 144.284C814.496 143.757 814.164 143.493 813.636 143.493C813.516 143.493 813.403 143.512 813.298 143.55C813.192 143.585 813.096 143.638 813.008 143.708C812.923 143.776 812.85 143.858 812.788 143.955C812.727 144.051 812.68 144.161 812.647 144.284H814.634ZM819.89 142.72H820.883V147H819.89V146.552C819.482 146.933 819.044 147.123 818.576 147.123C817.984 147.123 817.495 146.909 817.108 146.481C816.724 146.045 816.532 145.5 816.532 144.847C816.532 144.205 816.724 143.67 817.108 143.243C817.492 142.815 817.972 142.601 818.549 142.601C819.047 142.601 819.494 142.806 819.89 143.216V142.72ZM817.543 144.847C817.543 145.257 817.653 145.591 817.873 145.849C818.098 146.109 818.382 146.24 818.725 146.24C819.091 146.24 819.387 146.114 819.613 145.862C819.838 145.601 819.951 145.27 819.951 144.869C819.951 144.467 819.838 144.136 819.613 143.875C819.387 143.621 819.094 143.493 818.734 143.493C818.394 143.493 818.11 143.622 817.881 143.88C817.656 144.141 817.543 144.463 817.543 144.847ZM822.131 142.72H823.12V143.102C823.301 142.912 823.462 142.781 823.603 142.711C823.747 142.638 823.917 142.601 824.113 142.601C824.374 142.601 824.646 142.686 824.93 142.856L824.478 143.761C824.29 143.626 824.107 143.559 823.928 143.559C823.389 143.559 823.12 143.966 823.12 144.781V147H822.131V142.72Z" fill="black"/>
<path d="M818 180L818 150" stroke="#070707" stroke-width="0.5"/>
<path d="M840.88 227.578V235H839.891V227.578H840.88ZM841.93 232.829C841.93 232.211 842.151 231.685 842.594 231.251C843.036 230.818 843.575 230.601 844.211 230.601C844.85 230.601 845.392 230.819 845.837 231.256C846.276 231.692 846.496 232.229 846.496 232.864C846.496 233.506 846.275 234.043 845.833 234.477C845.387 234.908 844.841 235.123 844.193 235.123C843.552 235.123 843.014 234.903 842.581 234.464C842.147 234.03 841.93 233.485 841.93 232.829ZM842.941 232.847C842.941 233.274 843.055 233.613 843.284 233.862C843.518 234.114 843.827 234.24 844.211 234.24C844.598 234.24 844.907 234.115 845.138 233.866C845.37 233.617 845.485 233.285 845.485 232.869C845.485 232.453 845.37 232.12 845.138 231.871C844.904 231.619 844.595 231.493 844.211 231.493C843.833 231.493 843.527 231.619 843.292 231.871C843.058 232.123 842.941 232.448 842.941 232.847ZM847.344 232.829C847.344 232.211 847.565 231.685 848.008 231.251C848.45 230.818 848.989 230.601 849.625 230.601C850.264 230.601 850.806 230.819 851.251 231.256C851.69 231.692 851.91 232.229 851.91 232.864C851.91 233.506 851.689 234.043 851.247 234.477C850.801 234.908 850.255 235.123 849.607 235.123C848.966 235.123 848.428 234.903 847.995 234.464C847.561 234.03 847.344 233.485 847.344 232.829ZM848.355 232.847C848.355 233.274 848.469 233.613 848.698 233.862C848.932 234.114 849.241 234.24 849.625 234.24C850.012 234.24 850.321 234.115 850.552 233.866C850.784 233.617 850.899 233.285 850.899 232.869C850.899 232.453 850.784 232.12 850.552 231.871C850.318 231.619 850.009 231.493 849.625 231.493C849.247 231.493 848.941 231.619 848.707 231.871C848.472 232.123 848.355 232.448 848.355 232.847ZM853.949 237.329H852.96V230.72H853.949V231.186C854.339 230.796 854.781 230.601 855.276 230.601C855.865 230.601 856.35 230.818 856.731 231.251C857.118 231.682 857.311 232.226 857.311 232.882C857.311 233.523 857.119 234.058 856.735 234.486C856.354 234.911 855.874 235.123 855.294 235.123C854.793 235.123 854.345 234.922 853.949 234.521V237.329ZM856.3 232.886C856.3 232.476 856.189 232.142 855.966 231.884C855.741 231.624 855.457 231.493 855.114 231.493C854.75 231.493 854.456 231.619 854.23 231.871C854.005 232.123 853.892 232.454 853.892 232.864C853.892 233.266 854.005 233.597 854.23 233.857C854.453 234.112 854.746 234.24 855.109 234.24C855.452 234.24 855.735 234.111 855.958 233.853C856.186 233.595 856.3 233.273 856.3 232.886Z" fill="black"/>
<path d="M837 231L815 231" stroke="#070707" stroke-width="0.5"/>
<path d="M649.284 166.25C649.284 165.11 649.134 164.21 648.834 163.55C648.534 162.83 648.114 162.29 647.574 161.93C647.034 161.57 646.404 161.36 645.684 161.3C644.964 161.18 644.154 161.12 643.254 161.12V159.5C644.334 159.44 645.564 159.32 646.944 159.14C648.324 158.9 649.734 158.66 651.174 158.42C652.614 158.12 654.024 157.79 655.404 157.43C656.784 157.07 658.014 156.71 659.094 156.35V206.75C659.094 209.69 659.634 211.67 660.714 212.69C661.854 213.71 663.444 214.22 665.484 214.22V215.84C664.704 216.02 663.714 216.23 662.514 216.47C661.374 216.65 660.174 216.89 658.914 217.19C657.654 217.43 656.394 217.7 655.134 218C653.934 218.3 652.884 218.57 651.984 218.81C651.684 218.03 651.414 217.16 651.174 216.2C650.934 215.24 650.694 214.1 650.454 212.78C649.134 214.64 647.544 216.17 645.684 217.37C643.824 218.51 641.454 219.08 638.574 219.08C635.574 219.08 632.844 218.57 630.384 217.55C627.984 216.47 625.914 215 624.174 213.14C622.494 211.22 621.204 209 620.304 206.48C619.404 203.9 618.954 201.08 618.954 198.02C618.954 195.44 619.434 192.95 620.394 190.55C621.414 188.15 622.794 186.05 624.534 184.25C626.334 182.45 628.464 181.01 630.924 179.93C633.384 178.85 636.084 178.31 639.024 178.31C641.424 178.31 643.464 178.79 645.144 179.75C646.884 180.65 648.264 181.79 649.284 183.17V166.25ZM629.754 198.56C629.754 199.82 629.844 201.47 630.024 203.51C630.264 205.49 630.714 207.47 631.374 209.45C632.094 211.37 633.084 213.05 634.344 214.49C635.604 215.87 637.284 216.56 639.384 216.56C642.384 216.56 644.784 215.57 646.584 213.59C648.384 211.61 649.284 208.37 649.284 203.87V190.73C649.284 189.53 649.104 188.36 648.744 187.22C648.384 186.02 647.814 184.97 647.034 184.07C646.314 183.11 645.384 182.36 644.244 181.82C643.104 181.22 641.784 180.92 640.284 180.92C638.484 180.92 636.894 181.46 635.514 182.54C634.194 183.62 633.114 185 632.274 186.68C631.434 188.36 630.804 190.25 630.384 192.35C629.964 194.45 629.754 196.52 629.754 198.56ZM706.627 211.43C705.907 212.33 705.037 213.23 704.017 214.13C703.057 215.03 701.947 215.84 700.687 216.56C699.427 217.28 697.987 217.88 696.367 218.36C694.807 218.84 693.067 219.08 691.147 219.08C688.627 219.08 686.167 218.66 683.767 217.82C681.367 216.92 679.207 215.63 677.287 213.95C675.367 212.27 673.807 210.2 672.607 207.74C671.467 205.22 670.897 202.37 670.897 199.19C670.897 196.31 671.437 193.61 672.517 191.09C673.597 188.57 675.067 186.35 676.927 184.43C678.787 182.51 680.977 181.01 683.497 179.93C686.017 178.79 688.717 178.22 691.597 178.22C693.697 178.22 695.737 178.58 697.717 179.3C699.697 179.96 701.437 180.95 702.937 182.27C704.497 183.53 705.757 185.06 706.717 186.86C707.737 188.66 708.337 190.64 708.517 192.8C708.517 193.16 708.487 193.49 708.427 193.79C708.427 194.09 708.277 194.24 707.977 194.24H681.607C681.487 195.26 681.397 196.13 681.337 196.85C681.337 197.51 681.337 198.26 681.337 199.1C681.337 201.62 681.607 203.96 682.147 206.12C682.747 208.22 683.557 210.05 684.577 211.61C685.597 213.11 686.857 214.28 688.357 215.12C689.857 215.96 691.537 216.38 693.397 216.38C695.017 216.38 696.457 216.17 697.717 215.75C698.977 215.33 700.117 214.85 701.137 214.31C702.157 213.71 703.027 213.08 703.747 212.42C704.467 211.7 705.097 211.07 705.637 210.53L706.627 211.43ZM696.817 192.08C697.777 192.08 698.257 191.6 698.257 190.64C698.257 189.5 698.137 188.33 697.897 187.13C697.717 185.87 697.357 184.73 696.817 183.71C696.277 182.69 695.557 181.85 694.657 181.19C693.817 180.53 692.737 180.2 691.417 180.2C689.737 180.2 688.327 180.59 687.187 181.37C686.107 182.15 685.207 183.14 684.487 184.34C683.767 185.48 683.197 186.74 682.777 188.12C682.417 189.5 682.117 190.82 681.877 192.08H696.817ZM740.446 178.04C740.446 179.18 740.416 180.11 740.356 180.83C740.356 181.55 740.356 182.33 740.356 183.17C740.356 184.01 740.356 185.09 740.356 186.41C740.416 187.73 740.446 188.99 740.446 190.19H738.646C738.646 189.05 738.436 187.88 738.016 186.68C737.656 185.48 737.086 184.4 736.306 183.44C735.586 182.48 734.626 181.7 733.426 181.1C732.286 180.44 730.936 180.11 729.376 180.11C727.456 180.11 725.986 180.56 724.966 181.46C723.946 182.3 723.436 183.41 723.436 184.79C723.436 185.87 723.796 186.86 724.516 187.76C725.296 188.66 726.256 189.5 727.396 190.28C728.536 191.06 729.796 191.78 731.176 192.44C732.556 193.1 733.846 193.79 735.046 194.51C736.366 195.29 737.596 196.1 738.736 196.94C739.876 197.72 740.836 198.62 741.616 199.64C742.456 200.6 743.116 201.71 743.596 202.97C744.076 204.23 744.316 205.67 744.316 207.29C744.316 209.33 743.866 211.1 742.966 212.6C742.126 214.04 741.046 215.24 739.726 216.2C738.406 217.16 736.906 217.88 735.226 218.36C733.606 218.84 732.046 219.08 730.546 219.08C728.806 219.08 727.036 218.81 725.236 218.27C723.436 217.79 721.846 217.04 720.466 216.02L719.026 218.27H717.406C717.406 216.95 717.406 215.84 717.406 214.94C717.466 214.04 717.496 213.08 717.496 212.06C717.496 211.04 717.466 210.02 717.406 209C717.346 207.92 717.316 206.78 717.316 205.58H719.116C719.116 207.08 719.356 208.52 719.836 209.9C720.376 211.22 721.126 212.42 722.086 213.5C723.046 214.52 724.186 215.36 725.506 216.02C726.886 216.62 728.416 216.92 730.096 216.92C730.996 216.92 731.866 216.8 732.706 216.56C733.546 216.32 734.296 215.96 734.956 215.48C735.616 214.94 736.126 214.28 736.486 213.5C736.906 212.72 737.116 211.79 737.116 210.71C737.116 209.69 736.846 208.79 736.306 208.01C735.826 207.23 735.166 206.54 734.326 205.94C733.486 205.28 732.526 204.68 731.446 204.14C730.426 203.6 729.376 203.03 728.296 202.43C727.036 201.71 725.746 200.96 724.426 200.18C723.166 199.4 721.996 198.47 720.916 197.39C719.896 196.31 719.056 195.08 718.396 193.7C717.796 192.26 717.496 190.58 717.496 188.66C717.496 187.04 717.826 185.57 718.486 184.25C719.206 182.93 720.106 181.82 721.186 180.92C722.266 179.96 723.496 179.24 724.876 178.76C726.256 178.28 727.666 178.04 729.106 178.04C731.146 178.04 732.766 178.28 733.966 178.76C735.226 179.18 736.306 179.63 737.206 180.11L738.916 178.04H740.446ZM756.183 187.85C756.183 186.71 756.033 185.81 755.733 185.15C755.433 184.43 755.013 183.89 754.473 183.53C753.933 183.17 753.303 182.96 752.583 182.9C751.863 182.78 751.053 182.72 750.153 182.72V181.1C751.233 181.04 752.463 180.92 753.843 180.74C755.223 180.5 756.633 180.26 758.073 180.02C759.513 179.72 760.923 179.42 762.303 179.12C763.683 178.76 764.913 178.37 765.993 177.95V211.25C765.993 212.45 766.143 213.38 766.443 214.04C766.743 214.7 767.163 215.21 767.703 215.57C768.243 215.93 768.873 216.17 769.593 216.29C770.313 216.35 771.123 216.38 772.023 216.38V218C770.583 218 769.323 218 768.243 218C767.223 217.94 766.293 217.91 765.453 217.91C764.613 217.85 763.833 217.82 763.113 217.82C762.393 217.76 761.643 217.73 760.863 217.73C760.023 217.73 759.243 217.76 758.523 217.82C757.863 217.82 757.143 217.85 756.363 217.91C755.643 217.91 754.773 217.94 753.753 218C752.793 218 751.593 218 750.153 218V216.38C751.053 216.38 751.863 216.35 752.583 216.29C753.303 216.17 753.933 215.93 754.473 215.57C755.013 215.21 755.433 214.7 755.733 214.04C756.033 213.38 756.183 212.45 756.183 211.25V187.85ZM759.963 158.42C761.463 158.42 762.753 158.96 763.833 160.04C764.913 161.12 765.453 162.41 765.453 163.91C765.453 165.41 764.913 166.7 763.833 167.78C762.753 168.8 761.463 169.31 759.963 169.31C758.463 169.31 757.173 168.8 756.093 167.78C755.073 166.7 754.563 165.41 754.563 163.91C754.563 162.41 755.073 161.12 756.093 160.04C757.173 158.96 758.463 158.42 759.963 158.42ZM808.456 184.61C809.176 185.57 809.836 186.77 810.436 188.21C811.096 189.59 811.426 191.03 811.426 192.53C811.426 193.97 811.186 195.5 810.706 197.12C810.286 198.74 809.476 200.24 808.276 201.62C807.136 203 805.516 204.17 803.416 205.13C801.316 206.09 798.646 206.69 795.406 206.93C794.746 206.99 793.846 207.05 792.706 207.11C791.566 207.11 790.456 207.23 789.376 207.47C788.296 207.65 787.366 207.98 786.586 208.46C785.806 208.88 785.416 209.51 785.416 210.35C785.416 211.25 785.836 211.91 786.676 212.33C787.516 212.69 788.566 212.93 789.826 213.05C791.146 213.17 792.616 213.23 794.236 213.23C795.856 213.23 797.476 213.26 799.096 213.32C801.376 213.44 803.536 213.74 805.576 214.22C807.676 214.64 809.506 215.39 811.066 216.47C812.686 217.55 813.976 218.99 814.936 220.79C815.896 222.59 816.376 224.9 816.376 227.72C816.376 230.06 815.866 232.19 814.846 234.11C813.886 236.09 812.506 237.77 810.706 239.15C808.966 240.59 806.866 241.7 804.406 242.48C801.946 243.26 799.276 243.65 796.396 243.65C792.436 243.65 789.196 243.2 786.676 242.3C784.216 241.46 782.266 240.41 780.826 239.15C779.446 237.89 778.516 236.51 778.036 235.01C777.556 233.57 777.316 232.25 777.316 231.05C777.316 230.09 777.496 229.16 777.856 228.26C778.216 227.42 778.696 226.67 779.296 226.01C779.956 225.41 780.676 224.9 781.456 224.48C782.296 224.12 783.166 223.94 784.066 223.94C785.086 223.94 786.016 224.12 786.856 224.48C787.756 224.84 788.356 225.2 788.656 225.56C787.096 226.04 785.956 226.85 785.236 227.99C784.516 229.13 784.156 230.48 784.156 232.04C784.156 232.88 784.276 233.84 784.516 234.92C784.816 236 785.386 237.02 786.226 237.98C787.126 239 788.386 239.84 790.006 240.5C791.626 241.16 793.786 241.49 796.486 241.49C798.706 241.49 800.656 241.22 802.336 240.68C804.076 240.14 805.516 239.42 806.656 238.52C807.856 237.62 808.756 236.57 809.356 235.37C809.956 234.23 810.256 233.03 810.256 231.77C810.256 229.79 809.806 228.23 808.906 227.09C808.066 225.95 806.896 225.08 805.396 224.48C803.896 223.88 802.096 223.49 799.996 223.31C797.956 223.13 795.766 223.01 793.426 222.95C792.166 222.89 790.756 222.77 789.196 222.59C787.636 222.41 786.166 221.99 784.786 221.33C783.466 220.73 782.356 219.83 781.456 218.63C780.556 217.43 780.106 215.81 780.106 213.77C780.106 211.67 780.856 209.87 782.356 208.37C783.916 206.87 785.926 205.94 788.386 205.58C785.506 204.56 783.076 202.91 781.096 200.63C779.116 198.35 778.126 195.65 778.126 192.53C778.126 190.55 778.516 188.69 779.296 186.95C780.136 185.21 781.306 183.71 782.806 182.45C784.306 181.13 786.076 180.11 788.116 179.39C790.156 178.61 792.436 178.22 794.956 178.22C796.636 178.22 798.136 178.4 799.456 178.76C800.836 179.12 802.006 179.54 802.966 180.02C803.926 180.5 804.706 181.01 805.306 181.55C805.966 182.03 806.476 182.45 806.836 182.81C808.036 181.79 809.356 180.86 810.796 180.02C812.236 179.12 813.916 178.67 815.836 178.67C816.436 178.67 817.066 178.73 817.726 178.85C818.386 178.97 818.986 179.21 819.526 179.57C820.126 179.87 820.606 180.32 820.966 180.92C821.386 181.46 821.596 182.15 821.596 182.99C821.596 183.89 821.266 184.67 820.606 185.33C820.006 185.99 819.226 186.32 818.266 186.32C817.486 186.32 816.826 186.17 816.286 185.87C815.806 185.51 815.416 185.12 815.116 184.7C814.876 184.28 814.666 183.89 814.486 183.53C814.366 183.17 814.276 182.96 814.216 182.9C813.916 182.6 813.466 182.45 812.866 182.45C812.206 182.45 811.426 182.69 810.526 183.17C809.686 183.65 808.996 184.13 808.456 184.61ZM788.116 192.62C788.116 195.08 788.296 197.12 788.656 198.74C789.076 200.3 789.586 201.53 790.186 202.43C790.846 203.33 791.566 203.96 792.346 204.32C793.126 204.68 793.936 204.86 794.776 204.86C795.676 204.86 796.516 204.68 797.296 204.32C798.136 203.96 798.856 203.33 799.456 202.43C800.056 201.53 800.536 200.3 800.896 198.74C801.256 197.12 801.436 195.08 801.436 192.62C801.436 190.16 801.256 188.15 800.896 186.59C800.536 184.97 800.026 183.71 799.366 182.81C798.766 181.91 798.076 181.28 797.296 180.92C796.516 180.56 795.706 180.38 794.866 180.38C794.026 180.38 793.186 180.56 792.346 180.92C791.566 181.28 790.846 181.91 790.186 182.81C789.586 183.71 789.076 184.97 788.656 186.59C788.296 188.15 788.116 190.16 788.116 192.62ZM832.916 187.76C832.916 186.62 832.766 185.72 832.466 185.06C832.166 184.34 831.746 183.8 831.206 183.44C830.666 183.08 830.036 182.87 829.316 182.81C828.596 182.69 827.786 182.63 826.886 182.63V181.01C827.906 180.89 829.046 180.74 830.306 180.56C831.566 180.32 832.826 180.08 834.086 179.84C835.346 179.54 836.576 179.21 837.776 178.85C838.976 178.49 840.056 178.1 841.016 177.68C841.316 179.18 841.526 180.53 841.646 181.73C841.826 182.87 841.946 183.95 842.006 184.97C843.566 182.51 845.516 180.74 847.856 179.66C850.196 178.58 852.716 178.04 855.416 178.04C858.476 178.04 860.876 178.58 862.616 179.66C864.416 180.74 865.766 182.06 866.666 183.62C867.566 185.18 868.136 186.83 868.376 188.57C868.676 190.25 868.826 191.75 868.826 193.07V211.25C868.826 212.45 868.976 213.38 869.276 214.04C869.576 214.7 869.996 215.21 870.536 215.57C871.076 215.93 871.706 216.17 872.426 216.29C873.146 216.35 873.956 216.38 874.856 216.38V218C873.416 218 872.186 218 871.166 218C870.206 217.94 869.336 217.91 868.556 217.91C867.776 217.85 867.056 217.82 866.396 217.82C865.736 217.76 865.016 217.73 864.236 217.73C863.396 217.73 862.616 217.76 861.896 217.82C861.176 217.82 860.396 217.85 859.556 217.91C858.716 217.91 857.756 217.94 856.676 218C855.656 218 854.426 218 852.986 218V216.38C853.886 216.38 854.696 216.35 855.416 216.29C856.136 216.17 856.766 215.93 857.306 215.57C857.846 215.21 858.266 214.7 858.566 214.04C858.866 213.38 859.016 212.45 859.016 211.25V193.52C859.016 192.8 858.956 191.78 858.836 190.46C858.776 189.08 858.506 187.73 858.026 186.41C857.606 185.03 856.886 183.83 855.866 182.81C854.906 181.79 853.526 181.28 851.726 181.28C850.346 181.28 849.086 181.61 847.946 182.27C846.866 182.87 845.936 183.68 845.156 184.7C844.376 185.72 843.776 186.92 843.356 188.3C842.936 189.62 842.726 191.03 842.726 192.53V211.25C842.726 212.45 842.876 213.38 843.176 214.04C843.476 214.7 843.896 215.21 844.436 215.57C844.976 215.93 845.606 216.17 846.326 216.29C847.046 216.35 847.856 216.38 848.756 216.38V218C847.316 218 846.056 218 844.976 218C843.896 217.94 842.906 217.91 842.006 217.91C841.166 217.85 840.356 217.82 839.576 217.82C838.856 217.76 838.106 217.73 837.326 217.73C836.486 217.73 835.736 217.76 835.076 217.82C834.416 217.82 833.726 217.85 833.006 217.91C832.286 217.91 831.446 217.94 830.486 218C829.526 218 828.326 218 826.886 218V216.38C827.786 216.38 828.596 216.35 829.316 216.29C830.036 216.17 830.666 215.93 831.206 215.57C831.746 215.21 832.166 214.7 832.466 214.04C832.766 213.38 832.916 212.45 832.916 211.25V187.76Z" fill="black"/>
<path d="M818 224.5C818 235.822 808.15 245 796 245C783.85 245 774 235.822 774 224.5C774 213.178 783.85 204 796 204C808.15 204 818 213.178 818 224.5Z" fill="#F6DD00" fill-opacity="0.4"/>
<circle cx="785" cy="213" r="5" fill="#FAEE80" fill-opacity="0.6"/>
<circle cx="817.5" cy="182.5" r="5.5" fill="#FAEE80" fill-opacity="0.5"/>
<circle cx="313" cy="166" r="5" fill="#F6DD00"/>
<path d="M785 216V253" stroke="#070707" stroke-width="0.5"/>
</svg>
