<?xml version="1.0" encoding="UTF-8"?>
<svg id="Layer_2" data-name="Layer 2" xmlns="http://www.w3.org/2000/svg" viewBox="0 0 108.25 33.97">
  <defs>
    <style>
      .cls-1 {
        fill: #d75428;
      }

      .cls-1, .cls-2 {
        stroke-width: 0px;
      }

      .cls-3 {
        font-family: Baskerville-SemiBoldItalic, Baskerville;
        font-style: italic;
        font-weight: 600;
      }

      .cls-3, .cls-4 {
        fill: #282828;
        font-size: 16.22px;
      }

      .cls-2 {
        fill: #010101;
      }

      .cls-4 {
        font-family: Baskerville, Baskerville;
      }

      .cls-5 {
        fill: #ed802c;
        stroke: #fff;
        stroke-miterlimit: 10;
        stroke-width: .23px;
      }
    </style>
  </defs>
  <g id="Layer_1-2" data-name="Layer 1">
    <text class="cls-4" transform="translate(30.87 13.53)"><tspan x="0" y="0">leighna-ann</tspan></text>
    <text class="cls-3" transform="translate(30.87 28.07)"><tspan x="0" y="0">lariosa</tspan></text>
    <g id="Layer_1-2" data-name="Layer 1-2">
      <g>
        <path class="cls-5" d="M3,4.12c-.57.16-1.07.45-1.28,1.17-.11.36-.03.75.05,1.12.27,1.2.35,2.47-.12,3.66-.42,1.05-1.05,2.04-1.3,3.16-1.64,7.45,5.35,15.41,12.74,16,1.23.1,3.28-.15,3.89-1.42.21-.43.22-.95.65-1.17.48-.25,1.23.08,1.74.06,3.63-.14,3.63-5.4,3.45-7.95-.32-4.36-2.3-7.95-5.77-10.65-1.15-.9-2.39-1.69-3.68-2.37-.62-.33-1.29-.57-1.89-.94-.71-.43-.97-.97-1.51-1.53-.94-.97-2.59-1.24-3.78-.59-.53.29-.96.72-1.49,1-.55.29-1.12.29-1.7.46h0Z"/>
        <path class="cls-1" d="M7.46,8.07c-.45.25-.63.87-.59,3.99.02,1.74-.03,3.52.26,5.24.5,3.01,3.41,4.41,6,5.32,1.41.49,2.83.65,3.81-.73.85-1.2,1.12-2.85.93-4.28-.43-3.29-3.25-5.34-7-8.06-2.19-1.59-2.94-1.74-3.41-1.48h0Z"/>
        <g>
          <path class="cls-2" d="M14.63,21.25c.25.25.24.64,0,.89s-.64.24-.89,0-.24-.64,0-.89.64-.24.89,0Z"/>
          <path class="cls-2" d="M16.6,20.38c.25.25.24.64,0,.89-.25.25-.64.24-.89,0s-.24-.64,0-.89.64-.24.89,0Z"/>
          <path class="cls-2" d="M15.43,18.68c.25.25.24.64,0,.89-.25.25-.64.24-.89,0-.25-.25-.24-.64,0-.89s.64-.24.89,0Z"/>
          <path class="cls-2" d="M11.42,20.73c-.16.31-.54.43-.85.27-.31-.16-.43-.54-.27-.85s.54-.43.85-.27.43.54.27.85Z"/>
          <path class="cls-2" d="M13.55,20.83c-.16.31-.54.43-.85.27s-.43-.54-.27-.85c.16-.31.54-.43.85-.27.31.16.43.54.27.85Z"/>
          <path class="cls-2" d="M13.64,18.74c-.16.31-.54.43-.85.27s-.43-.54-.27-.85c.16-.31.54-.43.85-.27.31.16.43.54.27.85Z"/>
          <path class="cls-2" d="M15.37,17.19c.25.25.24.64,0,.89-.25.25-.64.24-.89,0-.25-.25-.24-.64,0-.89.25-.25.64-.24.89,0Z"/>
          <path class="cls-2" d="M16.74,16.21c.25.25.24.64,0,.89s-.64.24-.89,0c-.25-.25-.24-.64,0-.89.25-.25.64-.24.89,0Z"/>
          <path class="cls-2" d="M17.33,17.69c.25.25.24.64,0,.89-.25.25-.64.24-.89,0s-.24-.64,0-.89c.25-.25.64-.24.89,0Z"/>
          <path class="cls-2" d="M15.06,16.48c-.16.31-.54.43-.85.27-.31-.16-.43-.54-.27-.85s.54-.43.85-.27.43.54.27.85Z"/>
          <path class="cls-2" d="M16.2,15.44c-.16.31-.54.43-.85.27s-.43-.54-.27-.85.54-.43.85-.27c.31.16.43.54.27.85Z"/>
          <path class="cls-2" d="M13.61,15.69c-.16.31-.54.43-.85.27-.31-.16-.43-.54-.27-.85s.54-.43.85-.27c.31.16.43.54.27.85Z"/>
          <path class="cls-2" d="M13,16.36c.25.25.24.64,0,.89-.25.25-.64.24-.89,0s-.24-.64,0-.89c.25-.25.64-.24.89,0Z"/>
          <path class="cls-2" d="M12.04,17.75c.25.25.24.64,0,.89-.25.25-.64.24-.89,0s-.24-.64,0-.89c.25-.25.64-.24.89,0Z"/>
          <path class="cls-2" d="M9.71,15.41c.25.25.24.64,0,.89-.25.25-.64.24-.89,0s-.24-.64,0-.89c.25-.25.64-.24.89,0Z"/>
          <path class="cls-2" d="M10.15,17.71c-.16.31-.54.43-.85.27-.31-.16-.43-.54-.27-.85.16-.31.54-.43.85-.27s.43.54.27.85Z"/>
          <path class="cls-2" d="M11.47,16.56c-.16.31-.54.43-.85.27s-.43-.54-.27-.85c.16-.31.54-.43.85-.27.31.16.43.54.27.85Z"/>
          <path class="cls-2" d="M8.63,17.61c-.16.31-.54.43-.85.27-.31-.16-.43-.54-.27-.85.16-.31.54-.43.85-.27s.43.54.27.85Z"/>
          <path class="cls-2" d="M14.69,13.25c.25.25.24.64,0,.89-.25.25-.64.24-.89,0-.25-.25-.24-.64,0-.89.25-.25.64-.24.89,0Z"/>
          <path class="cls-2" d="M8.55,11.25c-.16.31-.54.43-.85.27s-.43-.54-.27-.85c.16-.31.54-.43.85-.27s.43.54.27.85Z"/>
          <path class="cls-2" d="M11.86,14.58c-.16.31-.54.43-.85.27s-.43-.54-.27-.85c.16-.31.54-.43.85-.27.31.16.43.54.27.85Z"/>
          <path class="cls-2" d="M13.2,13.27c-.16.31-.54.43-.85.27-.31-.16-.43-.54-.27-.85.16-.31.54-.43.85-.27.31.16.43.54.27.85Z"/>
          <path class="cls-2" d="M10.29,11.06c.25.25.24.64,0,.89-.25.25-.64.24-.89,0-.25-.25-.24-.64,0-.89.25-.25.64-.24.89,0Z"/>
          <path class="cls-2" d="M8.67,13.51c-.16.31-.54.43-.85.27s-.43-.54-.27-.85.54-.43.85-.27c.31.16.43.54.27.85Z"/>
          <path class="cls-2" d="M10.58,13.73c-.16.31-.54.43-.85.27s-.43-.54-.27-.85.54-.43.85-.27c.31.16.43.54.27.85Z"/>
          <path class="cls-2" d="M10.61,10.21c-.16.31-.54.43-.85.27-.31-.16-.43-.54-.27-.85s.54-.43.85-.27.43.54.27.85Z"/>
          <path class="cls-2" d="M12.27,11.89c-.16.31-.54.43-.85.27s-.43-.54-.27-.85c.16-.31.54-.43.85-.27.31.16.43.54.27.85Z"/>
          <path class="cls-2" d="M10.58,18.66c.25.25.24.64,0,.89-.25.25-.64.24-.89,0-.25-.25-.24-.64,0-.89.25-.25.64-.24.89,0Z"/>
          <path class="cls-2" d="M8.74,9.66c-.16.31-.54.43-.85.27s-.43-.54-.27-.85c.16-.31.54-.43.85-.27.31.16.43.54.27.85Z"/>
          <path class="cls-2" d="M8.68,15.2c-.16.31-.54.43-.85.27s-.43-.54-.27-.85c.16-.31.54-.43.85-.27.31.16.43.54.27.85Z"/>
        </g>
      </g>
    </g>
  </g>
</svg>