<?xml version="1.0" encoding="UTF-8"?>
<svg id="Layer_2" data-name="Layer 2" xmlns="http://www.w3.org/2000/svg" viewBox="0 0 72.92 73.8">
  <defs>
    <style>
      .cls-1 {
        fill: #010101;
      }

      .cls-1, .cls-2 {
        stroke-width: 0px;
      }

      .cls-2 {
        fill: #d75428;
      }

      .cls-3 {
        fill: #ed802c;
        stroke: #fff;
        stroke-miterlimit: 10;
        stroke-width: .23px;
      }
    </style>
  </defs>
  <g id="Layer_1-2" data-name="Layer 1">
    <g>
      <path class="cls-3" d="M2.9,8.98C1.4,9.86.19,11.04.12,13.25c-.04,1.11.45,2.17.96,3.16,1.65,3.22,2.8,6.78,2.32,10.53-.42,3.3-1.51,6.58-1.4,9.94.77,22.43,26.48,40.03,47.98,36.3,3.58-.62,9.23-2.82,10.06-6.89.28-1.38-.07-2.87.99-3.82,1.19-1.06,3.56-.67,5.01-1.1,10.24-3.04,6.42-18.03,4.03-25.19-4.09-12.2-12.36-20.98-24.23-26.15-3.93-1.72-8.05-3.06-12.22-4.06-2.01-.48-4.09-.69-6.06-1.3-2.33-.72-3.48-2.06-5.42-3.26C18.76-.66,13.85-.22,10.94,2.48c-1.29,1.2-2.22,2.75-3.52,3.94-1.35,1.23-2.97,1.65-4.52,2.55Z"/>
      <path class="cls-2" d="M18.49,16.98c-1.11,1.04-1.16,2.93,1.23,11.79,1.33,4.93,2.49,10.06,4.56,14.76,3.62,8.2,12.93,10.08,20.98,10.79,4.38.38,8.55-.21,10.32-4.85,1.54-4.03,1.11-8.93-.47-12.89-3.61-9.06-13.15-12.84-25.82-17.87-7.4-2.94-9.66-2.81-10.81-1.73Z"/>
      <g>
        <path class="cls-1" d="M48.53,49.32c.88.52,1.16,1.66.64,2.53s-1.66,1.16-2.53.64-1.16-1.66-.64-2.53,1.66-1.16,2.53-.64Z"/>
        <path class="cls-1" d="M53.52,45.4c.88.52,1.16,1.66.64,2.53-.52.88-1.66,1.16-2.53.64s-1.16-1.66-.64-2.53,1.66-1.16,2.53-.64Z"/>
        <path class="cls-1" d="M48.95,41.42c.88.52,1.16,1.66.64,2.53-.52.88-1.66,1.16-2.53.64-.88-.52-1.16-1.66-.64-2.53s1.66-1.16,2.53-.64Z"/>
        <path class="cls-1" d="M39,50.18c-.23.99-1.22,1.61-2.22,1.38-.99-.23-1.61-1.22-1.38-2.22s1.22-1.61,2.22-1.38,1.61,1.22,1.38,2.22Z"/>
        <path class="cls-1" d="M45.16,48.91c-.23.99-1.23,1.61-2.22,1.38s-1.61-1.22-1.38-2.22c.23-.99,1.22-1.61,2.22-1.38.99.23,1.61,1.22,1.38,2.22Z"/>
        <path class="cls-1" d="M43.88,42.89c-.23.99-1.23,1.61-2.22,1.38s-1.61-1.22-1.38-2.22c.23-.99,1.22-1.61,2.22-1.38.99.23,1.61,1.23,1.38,2.22Z"/>
        <path class="cls-1" d="M47.68,37.21c.88.52,1.16,1.66.64,2.53-.52.88-1.66,1.16-2.53.64-.88-.52-1.16-1.66-.64-2.53.52-.88,1.66-1.16,2.53-.64Z"/>
        <path class="cls-1" d="M50.87,33.41c.88.52,1.16,1.66.64,2.53s-1.66,1.16-2.53.64c-.88-.52-1.16-1.66-.64-2.53.52-.88,1.66-1.16,2.53-.64Z"/>
        <path class="cls-1" d="M53.62,37.21c.88.52,1.16,1.66.64,2.53-.52.88-1.66,1.16-2.53.64s-1.16-1.66-.64-2.53c.52-.88,1.66-1.16,2.53-.64Z"/>
        <path class="cls-1" d="M46.28,35.42c-.23.99-1.22,1.61-2.22,1.38-.99-.23-1.61-1.22-1.38-2.22s1.22-1.61,2.22-1.38,1.61,1.22,1.38,2.22Z"/>
        <path class="cls-1" d="M48.77,31.61c-.23.99-1.23,1.61-2.22,1.38-.99-.23-1.61-1.23-1.38-2.22.23-.99,1.22-1.61,2.22-1.38.99.23,1.61,1.22,1.38,2.22Z"/>
        <path class="cls-1" d="M41.57,34.21c-.23.99-1.22,1.61-2.22,1.38-.99-.23-1.61-1.23-1.38-2.22s1.22-1.61,2.22-1.38c.99.23,1.61,1.22,1.38,2.22Z"/>
        <path class="cls-1" d="M40.33,36.58c.88.52,1.16,1.66.64,2.53-.52.88-1.66,1.16-2.53.64s-1.16-1.66-.64-2.53c.52-.88,1.66-1.16,2.53-.64Z"/>
        <path class="cls-1" d="M38.6,41.25c.88.52,1.16,1.66.64,2.53-.52.88-1.66,1.16-2.53.64s-1.16-1.66-.64-2.53c.52-.88,1.66-1.16,2.53-.64Z"/>
        <path class="cls-1" d="M30.26,36.26c.88.52,1.16,1.66.64,2.53-.52.88-1.66,1.16-2.53.64s-1.16-1.66-.64-2.53c.52-.88,1.66-1.16,2.53-.64Z"/>
        <path class="cls-1" d="M33.19,42.51c-.23.99-1.22,1.61-2.22,1.38-.99-.23-1.61-1.22-1.38-2.22.23-.99,1.23-1.61,2.22-1.38s1.61,1.22,1.38,2.22Z"/>
        <path class="cls-1" d="M36.11,38.25c-.23.99-1.23,1.61-2.22,1.38s-1.61-1.22-1.38-2.22c.23-.99,1.22-1.61,2.22-1.38.99.23,1.61,1.22,1.38,2.22Z"/>
        <path class="cls-1" d="M28.78,43.33c-.23.99-1.22,1.61-2.22,1.38-.99-.23-1.61-1.22-1.38-2.22.23-.99,1.23-1.61,2.22-1.38.99.23,1.61,1.22,1.38,2.22Z"/>
        <path class="cls-1" d="M42.86,26.48c.88.52,1.16,1.66.64,2.53-.52.88-1.66,1.16-2.53.64-.88-.52-1.16-1.66-.64-2.53.52-.88,1.66-1.16,2.53-.64Z"/>
        <path class="cls-1" d="M23.9,25.26c-.23.99-1.22,1.61-2.22,1.38s-1.61-1.22-1.38-2.22c.23-.99,1.22-1.61,2.22-1.38s1.61,1.22,1.38,2.22Z"/>
        <path class="cls-1" d="M35.76,32.34c-.23.99-1.23,1.61-2.22,1.38s-1.61-1.22-1.38-2.22c.23-.99,1.22-1.61,2.22-1.38.99.23,1.61,1.22,1.38,2.22Z"/>
        <path class="cls-1" d="M38.64,27.61c-.23.99-1.22,1.61-2.22,1.38-.99-.23-1.61-1.22-1.38-2.22.23-.99,1.23-1.61,2.22-1.38.99.23,1.61,1.23,1.38,2.22Z"/>
        <path class="cls-1" d="M28.74,23.45c.88.52,1.16,1.66.64,2.53-.52.88-1.66,1.16-2.53.64-.88-.52-1.16-1.66-.64-2.53.52-.88,1.66-1.16,2.53-.64Z"/>
        <path class="cls-1" d="M25.91,31.61c-.23.99-1.22,1.61-2.22,1.38s-1.61-1.22-1.38-2.22,1.22-1.61,2.22-1.38c.99.23,1.61,1.22,1.38,2.22Z"/>
        <path class="cls-1" d="M31.5,30.86c-.23.99-1.22,1.61-2.22,1.38s-1.61-1.22-1.38-2.22,1.22-1.61,2.22-1.38c.99.23,1.61,1.22,1.38,2.22Z"/>
        <path class="cls-1" d="M29.01,20.8c-.23.99-1.22,1.61-2.22,1.38-.99-.23-1.61-1.22-1.38-2.22s1.22-1.61,2.22-1.38,1.61,1.22,1.38,2.22Z"/>
        <path class="cls-1" d="M34.99,24.37c-.23.99-1.22,1.61-2.22,1.38s-1.61-1.22-1.38-2.22c.23-.99,1.22-1.61,2.22-1.38.99.23,1.61,1.22,1.38,2.22Z"/>
        <path class="cls-1" d="M35.09,44.9c.88.52,1.16,1.66.64,2.53-.52.88-1.66,1.16-2.53.64-.88-.52-1.16-1.66-.64-2.53.52-.88,1.66-1.16,2.53-.64Z"/>
        <path class="cls-1" d="M23.29,20.59c-.23.99-1.22,1.61-2.22,1.38s-1.61-1.22-1.38-2.22c.23-.99,1.22-1.61,2.22-1.38.99.23,1.61,1.22,1.38,2.22Z"/>
        <path class="cls-1" d="M27.16,36.42c-.23.99-1.22,1.61-2.22,1.38s-1.61-1.22-1.38-2.22c.23-.99,1.22-1.61,2.22-1.38.99.23,1.61,1.22,1.38,2.22Z"/>
      </g>
    </g>
  </g>
</svg>