<?xml version="1.0" encoding="UTF-8"?>
<svg id="Layer_1" data-name="Layer 1" xmlns="http://www.w3.org/2000/svg" version="1.1" viewBox="0 0 107 117">
  <defs>
    <style>
      .cls-1 {
        stroke: #fff;
        stroke-miterlimit: 10;
        stroke-width: .2px;
      }

      .cls-1, .cls-2 {
        fill: #fff;
      }

      .cls-3 {
        fill: #d75428;
      }

      .cls-3, .cls-2 {
        stroke-width: 0px;
      }
    </style>
  </defs>
  <path class="cls-1" d="M48.6,31c-.9-.9-1-2.3,0-3.2.9-.9,2.3-.9,3.2,0s.9,2.3,0,3.2c-.9.9-2.3.9-3.2,0Z"/>
  <path class="cls-3" d="M48.6,31c-.9-.9-1-2.3,0-3.2.9-.9,2.3-.9,3.2,0s.9,2.3,0,3.2c-.9.9-2.3.9-3.2,0Z"/>
  <g>
    <path class="cls-2" d="M44,58.8c.9.9.9,2.3,0,3.2s-2.3.9-3.2,0-.9-2.3,0-3.2,2.3-.9,3.2,0Z"/>
    <path class="cls-2" d="M46.7,53.7c-.9.9-2.3.9-3.2,0s-.9-2.3,0-3.2,2.3-.9,3.2,0,.9,2.3,0,3.2Z"/>
    <path class="cls-2" d="M45.1,48c-.9-.9-.9-2.3,0-3.2s2.3-.9,3.2,0,1,2.3,0,3.2c-.9.9-2.3.9-3.2,0Z"/>
    <path class="cls-2" d="M46,64c-.9-.9-.9-2.3,0-3.2s2.3-.9,3.2,0,.9,2.3,0,3.2-2.3.9-3.2,0Z"/>
    <path class="cls-2" d="M45.8,69.8c-.6-1.1-.2-2.5.9-3.1,1.1-.6,2.5-.2,3.1.9.6,1.1.2,2.5-.9,3.1-1.1.6-2.5.2-3.1-.9Z"/>
    <path class="cls-2" d="M50,55.5c.6,1.1.2,2.5-.9,3.1-1.1.6-2.5.2-3.1-.9-.6-1.1-.2-2.4.9-3.1,1.1-.6,2.5-.2,3.1.9Z"/>
    <path class="cls-2" d="M47,40c-.9-.9-.9-2.3,0-3.2s2.3-.9,3.2,0,.9,2.3,0,3.2-2.3.9-3.2,0Z"/>
    <path class="cls-2" d="M50.5,72.4c.9.9,1,2.3,0,3.2-.9.9-2.3.9-3.2,0s-.9-2.3,0-3.2c.9-.9,2.3-.9,3.2,0Z"/>
    <path class="cls-2" d="M51.5,50.7c-.9-.9-.9-2.3,0-3.2s2.3-.9,3.2,0,.9,2.3,0,3.2-2.3.9-3.2,0Z"/>
    <path class="cls-2" d="M51.7,61.3c-.9-.9-.9-2.3,0-3.2s2.3-.9,3.2,0,.9,2.3,0,3.2-2.3.9-3.2,0Z"/>
    <path class="cls-2" d="M54.8,69c-1.1.6-2.5.2-3.1-.9s-.2-2.5.9-3.1c1.1-.6,2.5-.2,3.1.9.6,1.1.2,2.5-.9,3.1Z"/>
    <path class="cls-2" d="M53.4,40.1c1.1-.6,2.4-.2,3.1.9.6,1.1.2,2.5-.9,3.1-1.1.6-2.5.2-3.1-.9-.6-1.1-.2-2.5.9-3.1Z"/>
    <path class="cls-2" d="M57.8,78.2c-.9.9-2.3.9-3.2,0s-.9-2.3,0-3.2c.9-.9,2.3-.9,3.2,0s1,2.3,0,3.2Z"/>
    <path class="cls-2" d="M55.2,38.5c-.9-.9-.9-2.3,0-3.2.9-.9,2.3-.9,3.2,0,.9.9.9,2.3,0,3.2s-2.3.9-3.2,0Z"/>
    <path class="cls-2" d="M58.2,51.6c.9.9.9,2.3,0,3.2s-2.3.9-3.2,0-.9-2.3,0-3.2,2.3-.9,3.2,0Z"/>
    <path class="cls-2" d="M60.2,67.8c.9.9.9,2.3,0,3.2-.9.9-2.3.9-3.2,0s-.9-2.3,0-3.2c.9-.9,2.3-.9,3.2,0Z"/>
    <path class="cls-2" d="M60.5,62.1c.6,1.1.2,2.5-.9,3.1-1.1.6-2.5.2-3.1-.9-.6-1.1-.2-2.5.9-3.1,1.1-.6,2.5-.2,3.1.9Z"/>
    <path class="cls-2" d="M61.1,80.7c.6,1.1.2,2.5-.9,3.1-1.1.6-2.5.2-3.1-.9s-.2-2.5.9-3.1c1.1-.6,2.5-.2,3.1.9Z"/>
    <path class="cls-2" d="M59.2,42.8c.9-.9,2.3-.9,3.2,0s.9,2.3,0,3.2-2.3.9-3.2,0-.9-2.3,0-3.2Z"/>
    <path class="cls-2" d="M63.2,60.4c-.9.9-2.3.9-3.2,0s-.9-2.3,0-3.2,2.3-.9,3.2,0,.9,2.3,0,3.2Z"/>
    <path class="cls-2" d="M64.2,48.4c.9.9,1,2.3,0,3.2-.9.9-2.3.9-3.2,0s-.9-2.3,0-3.2,2.3-.9,3.2,0Z"/>
    <path class="cls-2" d="M62.5,74.8c-.6-1.1-.2-2.5.9-3.1,1.1-.6,2.5-.2,3.1.9.6,1.1.2,2.5-.9,3.1s-2.5.2-3.1-.9Z"/>
    <path class="cls-2" d="M67.5,64.6c-.9.9-2.3.9-3.2,0-.9-.9-.9-2.3,0-3.2.9-.9,2.3-.9,3.2,0s.9,2.3,0,3.2Z"/>
    <path class="cls-2" d="M67.8,67.4c.6,1.1.2,2.5-.9,3.1-1.1.6-2.5.2-3.1-.9s-.2-2.5.9-3.1c1.1-.6,2.5-.2,3.1.9Z"/>
    <path class="cls-2" d="M68.8,79.7c.6,1.1.2,2.5-.9,3.1s-2.5.2-3.1-.9-.2-2.5.9-3.1c1.1-.6,2.5-.2,3.1.9Z"/>
    <path class="cls-2" d="M65.5,55.3c-.6-1.1-.2-2.5.9-3.1s2.5-.2,3.1.9c.6,1.1.2,2.5-.9,3.1s-2.5.2-3.1-.9Z"/>
    <path class="cls-2" d="M69.2,59c.9-.9,2.3-.9,3.2,0,.9.9.9,2.3,0,3.2s-2.3.9-3.2,0c-.9-.9-.9-2.3,0-3.2Z"/>
    <path class="cls-2" d="M73.6,65.4c.6,1.1.2,2.5-.9,3.1-1.1.6-2.5.2-3.1-.9s-.2-2.5.9-3.1,2.5-.2,3.1.9Z"/>
    <path class="cls-2" d="M74.1,71.1c.6,1.1.2,2.5-.9,3.1s-2.5.2-3.1-.9-.2-2.5.9-3.1,2.5-.2,3.1.9Z"/>
    <path class="cls-1" d="M82.8,37.7c-3.1-4.3-6.6-8.3-10.3-11.9-1.8-1.8-3.9-3.3-5.6-5.2-2-2.2-2.4-4.3-3.7-6.8-2.3-4.3-7.7-6.9-12.5-5.9-2.1.5-4,1.5-6.2,2-2.2.4-4.2,0-6.3,0h0c-2.1,0-4.2.4-5.6,2.7-.8,1.1-.9,2.6-1,3.9-.3,4.4-1.3,8.9-4.1,12.6-2.5,3.2-5.7,6-7.7,9.6-13.2,24.1,2.9,58.7,27.9,68.3,4.2,1.6,11.5,2.8,14.9-1,1.2-1.3,1.7-3.1,3.4-3.4,1.9-.4,4.2,1.5,6,2,12.7,3.2,18-15,20-24,3.3-15.4,0-29.8-9.2-42.7h0ZM76,71.4c-.8,5.1-3.4,10.6-7.6,13.9-4.8,3.8-9.5,1.8-13.9-1.3-8-5.8-16.7-13.6-15.4-24.5.7-6.2,2.7-12.3,4.4-18.4,3-10.8,4.3-12.8,6.1-13.2,1.9-.4,4.3.9,10.3,8.6,10.2,13.2,17.9,23.2,16.1,35h0Z"/>
    <path class="cls-2" d="M67.8,67.4c.6,1.1.2,2.5-.9,3.1-1.1.6-2.5.2-3.1-.9s-.2-2.5.9-3.1c1.1-.6,2.5-.2,3.1.9Z"/>
    <path class="cls-2" d="M66.9,70.5c-1.1.6-2.5.2-3.1-.9s-.2-2.5.9-3.1c1.1-.6,2.5-.2,3.1.9.6,1.1.2,2.5-.9,3.1Z"/>
  </g>
  <path class="cls-2" d="M51.8,30.9c-.9.9-2.3.9-3.2,0s-1-2.3,0-3.2c.9-.9,2.3-.9,3.2,0s.9,2.3,0,3.2Z"/>
</svg>